<?xml version="1.0" encoding="UTF-8"?>
<svg width="12px" height="6px" viewBox="0 0 12 6" version="1.1" xmlns="http://www.w3.org/2000/svg" xmlns:xlink="http://www.w3.org/1999/xlink">
    <!-- Generator: Sketch 53.2 (72643) - https://sketchapp.com -->
    <title>noun_Arrow_1807388 Copy</title>
    <desc>Created with Sketch.</desc>
    <g id="Home" stroke="none" stroke-width="1" fill="none" fill-rule="evenodd">
        <g id="catalogo-karcher" transform="translate(-1298.000000, -420.000000)" fill="#353535">
            <g id="meio" transform="translate(0.000000, 171.000000)">
                <g id="topo" transform="translate(316.000000, 237.000000)">
                    <g id="noun_Arrow_1807388" transform="translate(988.000000, 15.000000) rotate(-270.000000) translate(-988.000000, -15.000000) translate(985.000000, 9.000000)">
                        <g id="Group">
                            <g transform="translate(0.000000, 0.153077)">
                                <path d="M5.79161723,5.77944 C5.77688216,5.63236604 5.71896668,5.49357581 5.62574031,5.381928 L1.47188954,0.3419256 C1.32288415,0.112594264 1.06067573,-0.00761783962 0.797378208,0.0326890497 C0.534080682,0.0729959391 0.316300759,0.266687034 0.237155815,0.530944754 C0.15801087,0.795202473 0.231510478,1.08325014 0.426228,1.2719256 L4.19785569,5.846928 L0.426228,10.421928 C0.231510478,10.6106035 0.15801087,10.8986511 0.237155815,11.1629088 C0.316300759,11.4271666 0.534080682,11.6208577 0.797378208,11.6611646 C1.06067573,11.7014714 1.32288415,11.5812593 1.47188954,11.351928 L5.62574031,6.311928 C5.7478178,6.16495942 5.80763515,5.9729374 5.79161723,5.77944 L5.79161723,5.77944 Z" id="Path"></path>
                            </g>
                        </g>
                    </g>
                </g>
            </g>
        </g>
    </g>
</svg>