<?xml version="1.0" encoding="UTF-8"?>
<svg width="24px" height="24px" viewBox="0 0 24 24" version="1.1" xmlns="http://www.w3.org/2000/svg" xmlns:xlink="http://www.w3.org/1999/xlink">
    <!-- Generator: Sketch 53.2 (72643) - https://sketchapp.com -->
    <title>70206 copy</title>
    <desc>Created with Sketch.</desc>
    <g id="Home" stroke="none" stroke-width="1" fill="none" fill-rule="evenodd">
        <g id="mobile-home-karcher" transform="translate(-256.000000, -11.000000)" fill="#FFF115" fill-rule="nonzero">
            <g id="hover-menu">
                <g id="70206-copy" transform="translate(256.000000, 11.000000)">
                    <path d="M20.0965029,0.143588571 C19.9050514,-0.0478628571 19.59168,-0.0478628571 19.4002286,0.143588571 L12.2959543,7.24786286 C12.1045029,7.43931429 11.7911314,7.43931429 11.59968,7.24786286 L4.49554286,0.143588571 C4.30409143,-0.0478628571 3.99072,-0.0478628571 3.79926857,0.143588571 L0.143588571,3.79913143 C-0.0478628571,3.99058286 -0.0478628571,4.30395429 0.143588571,4.49540571 L7.24786286,11.59968 C7.43931429,11.7911314 7.43931429,12.1045029 7.24786286,12.2959543 L0.143588571,19.4002286 C-0.0478628571,19.59168 -0.0478628571,19.9050514 0.143588571,20.0965029 L3.79913143,23.7520457 C3.99058286,23.9434971 4.30395429,23.9434971 4.49540571,23.7520457 L11.59968,16.6477714 C11.7911314,16.45632 12.1045029,16.45632 12.2959543,16.6477714 L19.4000914,23.7519086 C19.5915429,23.94336 19.9049143,23.94336 20.0963657,23.7519086 L23.7519086,20.0963657 C23.94336,19.9049143 23.94336,19.5915429 23.7519086,19.4000914 L16.6477714,12.2959543 C16.45632,12.1045029 16.45632,11.7911314 16.6477714,11.59968 L23.7519086,4.49554286 C23.94336,4.30409143 23.94336,3.99072 23.7519086,3.79926857 L20.0965029,0.143588571 Z" id="Path"></path>
                </g>
            </g>
        </g>
    </g>
</svg>