<?xml version="1.0" encoding="UTF-8"?>
<svg width="40px" height="40px" viewBox="0 0 40 40" version="1.1" xmlns="http://www.w3.org/2000/svg" xmlns:xlink="http://www.w3.org/1999/xlink">
    <!-- Generator: Sketch 53.2 (72643) - https://sketchapp.com -->
    <title>Rectangle Copy 2</title>
    <desc>Created with Sketch.</desc>
    <g id="Home" stroke="none" stroke-width="1" fill="none" fill-rule="evenodd">
        <g id="home-karcher" transform="translate(-1584.000000, -1481.000000)">
            <g id="vitrine" transform="translate(297.000000, 1249.000000)">
                <g id="lideres-de-venda">
                    <g id="Rectangle" transform="translate(1307.000000, 252.000000) scale(-1, 1) translate(-1307.000000, -252.000000) translate(1287.000000, 232.000000)">
                        <rect fill="#E7E7E7" x="0" y="0" width="40" height="40"></rect>
                        <g id="left-arrow-(47)" transform="translate(12.000000, 13.000000)" fill="#373535" stroke-width="1">
                            <g id="Path">
                                <path d="M15.1006179,5.68256585 L15.1255935,5.68830244 L4.41912195,5.68830244 L7.78484553,2.14650732 C7.94965854,1.97359024 8.04006504,1.73934634 8.04006504,1.49349268 C8.04006504,1.24763902 7.94965854,1.01503415 7.78484553,0.841707317 L7.26113821,0.291541463 C7.09645528,0.11862439 6.87700813,0.0230146341 6.64299187,0.0230146341 C6.40884553,0.0230146341 6.18926829,0.117941463 6.02458537,0.290858537 L0.255089431,6.34828293 C0.0897560976,6.52188293 -0.000650406504,6.75312195 7.39426517e-15,6.9991122 C-0.000650406504,7.24646829 0.0897560976,7.4778439 0.255089431,7.65117073 L6.02458537,13.7091415 C6.18926829,13.881922 6.40871545,13.9769854 6.64299187,13.9769854 C6.87700813,13.9769854 7.09645528,13.8817854 7.26113821,13.7091415 L7.78484553,13.1589756 C7.94965854,12.9863317 8.04006504,12.7557756 8.04006504,12.509922 C8.04006504,12.2642049 7.94965854,12.0458049 7.78484553,11.8730244 L4.38113821,8.31142439 L15.1125854,8.31142439 C15.5947967,8.31142439 16,7.87503415 16,7.36898537 L16,6.59085854 C16,6.08480976 15.5828293,5.68256585 15.1006179,5.68256585 Z" fill-rule="nonzero"></path>
                            </g>
                        </g>
                    </g>
                </g>
            </g>
        </g>
    </g>
</svg>