<?xml version="1.0" encoding="UTF-8"?>
<svg width="13px" height="8px" viewBox="0 0 13 8" version="1.1" xmlns="http://www.w3.org/2000/svg" xmlns:xlink="http://www.w3.org/1999/xlink">
    <!-- Generator: Sketch 53.2 (72643) - https://sketchapp.com -->
    <title>Path Copy</title>
    <desc>Created with Sketch.</desc>
    <g id="Home" stroke="none" stroke-width="1" fill="none" fill-rule="evenodd">
        <g id="mobile-home-karcher" transform="translate(-218.000000, -398.000000)" fill="#000000" fill-rule="nonzero">
            <g id="hover-menu">
                <g id="categorias" transform="translate(0.000000, 152.000000)">
                    <g id="Group-6" transform="translate(15.000000, 220.000000)">
                        <path d="M212.787586,29.4745793 L207.502634,24.1897241 C207.3804,24.0673931 207.217228,24 207.043241,24 C206.869255,24 206.706083,24.0673931 206.583848,24.1897241 L206.194648,24.5788276 C205.941393,24.8323724 205.941393,25.2444552 206.194648,25.4976138 L210.632552,29.9355172 L206.189724,34.3783448 C206.06749,34.5006759 206,34.6637517 206,34.8376414 C206,35.0117241 206.06749,35.1748 206.189724,35.2972276 L206.578924,35.6862345 C206.701255,35.8085655 206.864331,35.8759586 207.038317,35.8759586 C207.212303,35.8759586 207.375476,35.8085655 207.49771,35.6862345 L212.787586,30.3965517 C212.91011,30.2738345 212.977407,30.1099862 212.977021,29.9358069 C212.977407,29.7609517 212.91011,29.5972 212.787586,29.4745793 Z" id="Path-Copy" transform="translate(209.488511, 29.937979) rotate(-270.000000) translate(-209.488511, -29.937979) "></path>
                    </g>
                </g>
            </g>
        </g>
    </g>
</svg>