<?xml version="1.0" encoding="UTF-8"?>
<svg width="17px" height="14px" viewBox="0 0 17 14" version="1.1" xmlns="http://www.w3.org/2000/svg" xmlns:xlink="http://www.w3.org/1999/xlink">
    <!-- Generator: Sketch 53.2 (72643) - https://sketchapp.com -->
    <title>noun_Barcode_1332311</title>
    <desc>Created with Sketch.</desc>
    <g id="Home" stroke="none" stroke-width="1" fill="none" fill-rule="evenodd">
        <g id="home-karcher" transform="translate(-1165.000000, -13.000000)">
            <g id="TOPO">
                <g id="regua" transform="translate(535.000000, 12.000000)">
                    <g id="Group" transform="translate(630.000000, 1.000000)">
                        <g id="noun_Barcode_1332311" transform="translate(0.000000, 0.000000)">
                            <g id="Group">
                                <g fill-rule="nonzero">
                                    <rect id="Rectangle" fill="#FFF115" x="4.32083333" y="2.331" width="1.026375" height="9.338"></rect>
                                    <rect id="Rectangle" fill="#FFF115" x="5.87066667" y="2.331" width="2.09525" height="9.338"></rect>
                                    <rect id="Rectangle" fill="#FFF115" x="8.55525" y="2.331" width="1" height="9.338"></rect>
                                    <rect id="Rectangle" fill="#FFF115" x="2.22629167" y="2.331" width="1.026375" height="9.338"></rect>
                                    <rect id="Rectangle" fill="#FFF115" x="14.2941667" y="2.331" width="1" height="9.338"></rect>
                                    <rect id="Rectangle" fill="#FFF115" x="9.58020833" y="2.331" width="1" height="9.338"></rect>
                                    <rect id="Rectangle" fill="#FFF115" x="11.152" y="2.331" width="2.09525" height="9.338"></rect>
                                    <path d="M0.014875,2.1105 L0.014875,11.8888 C0.014875,12.8275 0.734541667,13.5919 1.61783333,13.5919 L15.382875,13.5919 C16.2661667,13.5919 16.985125,12.8275 16.985125,11.8888 L16.985125,2.1105 C16.985125,1.1718 16.2661667,0.4081 15.382875,0.4081 L1.61783333,0.4081 C0.734541667,0.4081 0.014875,1.1718 0.014875,2.1105 Z M0.58225,2.1105 C0.58225,1.4812 1.04620833,0.9688 1.61783333,0.9688 L15.382875,0.9688 C15.9537917,0.9688 16.41775,1.4805 16.41775,2.1105 L16.41775,11.8888 C16.41775,12.5188 15.9537917,13.0312 15.382875,13.0312 L1.61783333,13.0312 C1.04620833,13.0312 0.58225,12.5195 0.58225,11.8888 L0.58225,2.1105 Z" id="Shape" fill="#FFFFFF"></path>
                                </g>
                            </g>
                        </g>
                    </g>
                </g>
            </g>
        </g>
    </g>
</svg>