<?xml version="1.0" encoding="UTF-8"?>
<svg width="15px" height="15px" viewBox="0 0 15 15" version="1.1" xmlns="http://www.w3.org/2000/svg" xmlns:xlink="http://www.w3.org/1999/xlink">
    <!-- Generator: Sketch 53.2 (72643) - https://sketchapp.com -->
    <title>noun_Box_1220611</title>
    <desc>Created with Sketch.</desc>
    <g id="Home" stroke="none" stroke-width="1" fill="none" fill-rule="evenodd">
        <g id="home-karcher" transform="translate(-1338.000000, -68.000000)" fill="#373535">
            <g id="TOPO">
                <g id="links" transform="translate(1196.000000, 55.000000)">
                    <g id="Group-9" transform="translate(142.000000, 13.000000)">
                        <g id="noun_Box_1220611">
                            <g id="Shape">
                                <path d="M7.5,0.078125 L0.079787234,2.734375 L0.079787234,12.125 L7.5,14.921875 L14.9202128,12.125 L14.9202128,2.734375 L7.5,0.078125 Z M7.5,1.046875 L9.06382979,1.609375 L3.49468085,3.65625 L1.89893617,3.0625 L7.5,1.046875 Z M7.03723404,13.765625 L1.0212766,11.5 L1.0212766,3.734375 L2.92021277,4.453125 L2.92021277,6.9375 L4.83510638,7.671875 L4.83510638,5.171875 L7.05319149,6 L7.05319149,13.765625 L7.03723404,13.765625 Z M5.64893617,4.46875 L11.2340426,2.390625 L13.0851064,3.046875 L7.5,5.15625 L5.64893617,4.46875 Z M13.9946809,11.5 L7.9787234,13.765625 L7.9787234,5.984375 L13.9946809,3.71875 L13.9946809,11.5 Z" fill-rule="nonzero"></path>
                            </g>
                        </g>
                    </g>
                </g>
            </g>
        </g>
    </g>
</svg>