<?xml version="1.0" encoding="UTF-8"?>
<svg width="25px" height="23px" viewBox="0 0 25 23" version="1.1" xmlns="http://www.w3.org/2000/svg" xmlns:xlink="http://www.w3.org/1999/xlink">
    <!-- Generator: Sketch 53.2 (72643) - https://sketchapp.com -->
    <title>noun_cart_2345547</title>
    <desc>Created with Sketch.</desc>
    <g id="Home" stroke="none" stroke-width="1" fill="none" fill-rule="evenodd">
        <g id="home-karcher" transform="translate(-1563.000000, -68.000000)" fill="#4AC87A">
            <g id="TOPO">
                <g id="links" transform="translate(1196.000000, 55.000000)">
                    <g id="Group-11" transform="translate(367.000000, 5.000000)">
                        <g id="Group-7">
                            <g id="noun_cart_2345547" transform="translate(0.000000, 8.000000)">
                                <g id="Group">
                                    <g transform="translate(0.000000, 0.174641)" fill-rule="nonzero">
                                        <path d="M0.819554103,0.0991820238 C0.36930962,0.0991820238 0.00433679348,0.466949286 0.00433679348,0.920610595 C0.00433679348,1.3742719 0.36930962,1.74203917 0.819554103,1.74203917 L3.96153777,1.74203917 L6.76384755,15.0645619 C6.87471712,15.5660714 7.20091277,15.9834667 7.61303234,15.9801262 L21.1999889,15.9801262 C21.6306682,15.98615 22.0268095,15.5927131 22.0268095,15.1586976 C22.0268095,14.7246821 21.6306682,14.3311357 21.1999889,14.337269 L8.27539647,14.337269 L7.92721712,12.6944119 L22.2869454,12.6944119 C22.6519454,12.6916738 22.9968095,12.4115393 23.0766736,12.0526845 L24.9788465,3.83839333 C25.0848519,3.36167179 24.6739562,2.84077929 24.1891193,2.83727726 L5.86371168,2.83727726 L5.4221356,0.749479643 C5.34498886,0.384737976 4.9940106,0.0987986905 4.6239019,0.0991820238 L0.819554103,0.0991820238 Z M6.2033856,4.4801344 L10.4493095,4.4801344 L10.8569182,6.94442012 L6.7214019,6.94442012 L6.2033856,4.4801344 Z M12.1137117,4.4801344 L17.2427878,4.4801344 L16.8351791,6.94442012 L12.5213204,6.94442012 L12.1137117,4.4801344 Z M18.9071899,4.4801344 L23.1616193,4.4801344 L22.5926519,6.94442012 L18.4995812,6.94442012 L18.9071899,4.4801344 Z M7.06955408,8.58727726 L11.1286573,8.58727726 L11.536266,11.0515548 L7.58754321,11.0515548 L7.06955408,8.58727726 Z M12.7930595,8.58727726 L16.5634399,8.58727726 L16.1558312,11.0515548 L13.2006682,11.0515548 L12.7930595,8.58727726 Z M18.2278421,8.58727726 L22.2105323,8.58727726 L21.6415649,11.0515548 L17.8202334,11.0515548 L18.2278421,8.58727726 Z M10.6021628,17.0753369 C9.11104864,17.0753369 7.88477147,18.3109298 7.88477147,19.8134321 C7.88477147,21.3159071 9.11104864,22.5515274 10.6021628,22.5515274 C12.0932769,22.5515274 13.3195541,21.3159071 13.3195541,19.8134321 C13.3195541,18.3109571 12.0932769,17.0753369 10.6021628,17.0753369 L10.6021628,17.0753369 Z M18.2108584,17.0753369 C16.7197443,17.0753369 15.4934671,18.3109298 15.4934671,19.8134321 C15.4934671,21.3159071 16.7197443,22.5515274 18.2108584,22.5515274 C19.7019726,22.5515274 20.9282497,21.3159071 20.9282497,19.8134321 C20.9282497,18.3109571 19.7019726,17.0753369 18.2108584,17.0753369 L18.2108584,17.0753369 Z M10.6021628,18.718194 C11.2121356,18.718194 11.6891193,19.1988119 11.6891193,19.8134321 C11.6891193,20.428025 11.2121356,20.9086702 10.6021628,20.9086702 C9.99224429,20.9086702 9.51520625,20.428025 9.51520625,19.8134321 C9.51520625,19.1988119 9.99224429,18.718194 10.6021628,18.718194 Z M18.2108584,18.718194 C18.8208312,18.718194 19.2978149,19.1988119 19.2978149,19.8134321 C19.2978149,20.428025 18.8208312,20.9086702 18.2108584,20.9086702 C17.6009399,20.9086702 17.1239019,20.428025 17.1239019,19.8134321 C17.1239019,19.1988119 17.6009399,18.718194 18.2108584,18.718194 Z" id="Shape"></path>
                                    </g>
                                </g>
                            </g>
                        </g>
                    </g>
                </g>
            </g>
        </g>
    </g>
</svg>