<?xml version="1.0" encoding="UTF-8"?>
<svg width="15px" height="15px" viewBox="0 0 15 15" version="1.1" xmlns="http://www.w3.org/2000/svg" xmlns:xlink="http://www.w3.org/1999/xlink">
    <!-- Generator: Sketch 53.2 (72643) - https://sketchapp.com -->
    <title>noun_chat_2332360</title>
    <desc>Created with Sketch.</desc>
    <g id="Home" stroke="none" stroke-width="1" fill="none" fill-rule="evenodd">
        <g id="home-karcher" transform="translate(-1449.000000, -68.000000)" fill="#373535">
            <g id="TOPO">
                <g id="links" transform="translate(1196.000000, 55.000000)">
                    <g id="Group-8" transform="translate(253.000000, 13.000000)">
                        <g id="noun_chat_2332360">
                            <g id="Shape">
                                <path d="M14.84985,13.799925 L13.5,12 C13.303725,11.73855 13.14255,11.442975 13.0188,11.118525 C13.8252,9.934575 14.25,8.562 14.25,7.125 C14.25,3.196275 11.053725,0 7.125,0 C3.196275,0 0,3.196275 0,7.125 C0,11.053725 3.196275,14.25 7.125,14.25 C8.22,14.25 9.301725,13.994025 10.283925,13.5051 C10.8105,13.912725 11.414775,14.219925 12.057825,14.40345 L14.044125,14.97105 C14.1123,14.990475 14.18115,15 14.25,15 C14.4924,15 14.72535,14.8821 14.8674,14.675175 C15.05055,14.41005 15.0432,14.057775 14.84985,13.799925 Z M11.465325,11.198025 C11.647725,11.831925 11.928225,12.4047 12.3003,12.90015 L12.308325,12.9111 C11.783175,12.73455 11.29905,12.441975 10.900575,12.058575 C10.757025,11.920125 10.569525,11.848725 10.380525,11.848725 C10.248675,11.848725 10.1154,11.883525 9.996,11.95455 C9.12375,12.474975 8.130975,12.75 7.125,12.75 C4.023225,12.75 1.5,10.226775 1.5,7.125 C1.5,4.023225 4.023225,1.5 7.125,1.5 C10.226775,1.5 12.75,4.023225 12.75,7.125 C12.75,8.364225 12.34935,9.54345 11.590575,10.5348 C11.446275,10.723725 11.3994,10.9695 11.465325,11.198025 Z" fill-rule="nonzero"></path>
                            </g>
                        </g>
                    </g>
                </g>
            </g>
        </g>
    </g>
</svg>