<?xml version="1.0" encoding="UTF-8"?>
<svg width="19px" height="17px" viewBox="0 0 19 17" version="1.1" xmlns="http://www.w3.org/2000/svg" xmlns:xlink="http://www.w3.org/1999/xlink">
    <!-- Generator: Sketch 53.2 (72643) - https://sketchapp.com -->
    <title>noun_Credit Card_2340854</title>
    <desc>Created with Sketch.</desc>
    <g id="Home" stroke="none" stroke-width="1" fill="none" fill-rule="evenodd">
        <g id="home-karcher" transform="translate(-996.000000, -12.000000)">
            <g id="TOPO">
                <g id="regua" transform="translate(535.000000, 12.000000)">
                    <g id="Group-2" transform="translate(461.000000, 0.000000)">
                        <g id="noun_Credit-Card_2340854" transform="translate(0.000000, 0.000000)">
                            <g>
                                <path d="M16.8230606,5.30634483 L5.85775758,5.30634483 C4.81506061,5.30634483 3.96754545,6.16982759 3.96754545,7.23027586 L3.96754545,14.7964483 C3.96754545,15.8568966 4.81563636,16.7197931 5.85775758,16.7197931 L16.8230606,16.7197931 C17.8651818,16.7197931 18.7121212,15.8563103 18.7121212,14.7964483 L18.7121212,7.23027586 C18.7121212,6.16924138 17.8646061,5.30634483 16.8230606,5.30634483 Z M5.85775758,6.48403448 L16.8230606,6.48403448 C17.2266667,6.48403448 17.556,6.81875862 17.556,7.23027586 L17.556,12.1602759 L5.12424242,12.1602759 L5.12424242,7.23027586 C5.12424242,6.81875862 5.453,6.48403448 5.85775758,6.48403448 Z M16.8230606,15.5426897 L5.85775758,15.5426897 C5.453,15.5426897 5.12481818,15.2079655 5.12481818,14.7970345 L5.12481818,14.2078966 L17.5565758,14.2078966 L17.5565758,14.7970345 C17.556,15.2073793 17.2266667,15.5426897 16.8230606,15.5426897 Z" id="Shape" fill="#FFFFFF" fill-rule="nonzero"></path>
                                <path d="M15.4815455,4.30568966 L14.7077273,1.36410345 C14.5021818,0.584448276 13.7145455,0.121931034 12.9487879,0.330034483 L1.3530303,3.49437931 C0.587272727,3.70306897 0.131848485,4.505 0.337393939,5.28465517 L2.44293939,13.2852069 C2.5310303,13.6193448 2.73024242,13.8907586 2.98415152,14.0806897 L2.98415152,7.23027586 C2.98415152,5.61762069 4.27269697,4.30568966 5.85718182,4.30568966 L15.4815455,4.30568966 Z" id="Path" fill="#FFF115" fill-rule="nonzero"></path>
                                <path d="M7.17221212,10.2715172 L9.49481818,10.2715172 C9.81436364,10.2715172 10.0734545,10.0077241 10.0734545,9.68296552 L10.0734545,8.21041379 C10.0734545,7.88506897 9.81436364,7.62186207 9.49481818,7.62186207 L7.17221212,7.62186207 C6.85266667,7.62186207 6.59357576,7.88506897 6.59357576,8.21041379 L6.59357576,9.68296552 C6.59357576,10.0077241 6.85266667,10.2715172 7.17221212,10.2715172 Z" id="Path" fill="#FFFFFF" fill-rule="nonzero"></path>
                            </g>
                        </g>
                    </g>
                </g>
            </g>
        </g>
    </g>
</svg>