<?xml version="1.0" encoding="UTF-8"?>
<svg width="24px" height="23px" viewBox="0 0 24 23" version="1.1" xmlns="http://www.w3.org/2000/svg" xmlns:xlink="http://www.w3.org/1999/xlink">
    <!-- Generator: Sketch 53.2 (72643) - https://sketchapp.com -->
    <title>facebook (66)</title>
    <desc>Created with Sketch.</desc>
    <g id="Home" stroke="none" stroke-width="1" fill="none" fill-rule="evenodd">
        <g id="home-karcher" transform="translate(-947.000000, -3440.000000)" fill="#475993">
            <g id="RODAPE" transform="translate(0.000000, 3265.000000)">
                <g id="Group-15" transform="translate(945.333333, 37.000000)">
                    <g id="facebook-(66)" transform="translate(2.000000, 138.000000)">
                        <g id="Path">
                            <path d="M19.8902763,0 L3.09780196,0 C1.38702934,0 0.000112469438,1.38686064 0.000112469438,3.09768949 L0.000112469438,19.8902763 C0.000112469438,21.6011051 1.38697311,22.9879658 3.09780196,22.9879658 L11.3797702,22.9879658 L11.3938851,14.7733105 L9.25972127,14.7733105 C8.98237164,14.7733105 8.75726406,14.5490465 8.7561956,14.2716968 L8.74596088,11.6237726 C8.74489242,11.3449046 8.97067482,11.1182787 9.24954279,11.1182787 L11.3798264,11.1182787 L11.3798264,8.55971149 C11.3798264,5.59051834 13.1932274,3.97377017 15.8419389,3.97377017 L18.0154108,3.97377017 C18.2934914,3.97377017 18.5189927,4.19921516 18.5189927,4.47735208 L18.5189927,6.71009535 C18.5189927,6.9881198 18.2936601,7.21350856 18.0156919,7.21367726 L16.6818606,7.21429584 C15.2414083,7.21429584 14.9624841,7.89878484 14.9624841,8.90330562 L14.9624841,11.118335 L18.1276553,11.118335 C18.4292421,11.118335 18.6632347,11.3816822 18.6276944,11.6811883 L18.3138484,14.3291125 C18.2838191,14.5825061 18.0689462,14.773423 17.8138093,14.773423 L14.976599,14.773423 L14.9624841,22.9880782 L19.8903888,22.9880782 C21.6011614,22.9880782 22.988022,21.6012176 22.988022,19.890445 L22.988022,3.09768949 C22.9879658,1.38686064 21.6011051,0 19.8902763,0 Z" fill-rule="nonzero"></path>
                        </g>
                    </g>
                </g>
            </g>
        </g>
    </g>
</svg>