<?xml version="1.0" encoding="UTF-8"?>
<svg width="18px" height="18px" viewBox="0 0 18 18" version="1.1" xmlns="http://www.w3.org/2000/svg" xmlns:xlink="http://www.w3.org/1999/xlink">
    <!-- Generator: Sketch 53.2 (72643) - https://sketchapp.com -->
    <title>25337</title>
    <desc>Created with Sketch.</desc>
    <g id="Home" stroke="none" stroke-width="1" fill="none" fill-rule="evenodd">
        <g id="mobile-catalogo-karcher" transform="translate(-79.000000, -291.000000)" fill="#FFF115" fill-rule="nonzero">
            <g id="Meio" transform="translate(15.000000, 152.000000)">
                <g id="filtros">
                    <g id="Group-4" transform="translate(64.000000, 139.000000)">
                        <g id="25337">
                            <path d="M17.9043275,0.510387097 C17.7595682,0.17892804 17.5090422,0.0131761787 17.1515434,0.0129975186 L0.82916129,0.0129975186 C0.472153846,0.0129975186 0.221270471,0.17892804 0.0767344913,0.510387097 C-0.0677121588,0.858818859 -0.0082630273,1.15655583 0.255349876,1.40301737 L6.54226303,7.68975186 L6.54226303,13.8872457 C6.54226303,14.1085608 6.62306203,14.2995931 6.78452605,14.4613697 L10.0488685,17.7256228 C10.2020248,17.8870422 10.3932357,17.9680645 10.6228586,17.9680645 C10.7247841,17.9680645 10.8309975,17.94667 10.9415434,17.9041935 C11.2732258,17.7595682 11.4391117,17.5088635 11.4391117,17.1518114 L11.4391117,7.68979653 L17.7258015,1.40306203 C17.9895037,1.1566005 18.0488189,0.858952854 17.9043275,0.510387097 Z" id="Path"></path>
                        </g>
                    </g>
                </g>
            </g>
        </g>
    </g>
</svg>