<?xml version="1.0" encoding="UTF-8"?>
<svg width="17px" height="18px" viewBox="0 0 17 18" version="1.1" xmlns="http://www.w3.org/2000/svg" xmlns:xlink="http://www.w3.org/1999/xlink">
    <!-- Generator: Sketch 53.2 (72643) - https://sketchapp.com -->
    <title>noun_Medal_1712498</title>
    <desc>Created with Sketch.</desc>
    <g id="Home" stroke="none" stroke-width="1" fill="none" fill-rule="evenodd">
        <g id="home-karcher" transform="translate(-535.000000, -12.000000)">
            <g id="TOPO">
                <g id="regua" transform="translate(535.000000, 12.000000)">
                    <g id="Group-4">
                        <g id="noun_Medal_1712498" transform="translate(0.000000, -0.000000)">
                            <g id="Group">
                                <g fill-rule="nonzero">
                                    <path d="M16.8797561,6.25123256 L14.059622,4.92174419 L13.6787805,1.80355814 L10.6235488,2.40132558 L8.5,0.104651163 L6.37645122,2.40153488 L3.3210122,1.80376744 L2.94037805,4.92195349 L0.120243902,6.25123256 L1.62785366,9 L0.120243902,11.7487674 L2.94037805,13.0782558 L3.3210122,16.1964419 L6.37645122,15.5986744 L8.5,17.8953488 L10.6235488,15.5984651 L13.6787805,16.1962326 L14.059622,13.0780465 L16.8797561,11.7485581 L15.3721463,9 L16.8797561,6.25123256 Z M8.5,14.0494186 C5.73770732,14.0494186 3.49847561,11.7887442 3.49847561,9 C3.49847561,6.21125581 5.73770732,3.9505814 8.5,3.9505814 C11.2622927,3.9505814 13.5015244,6.21125581 13.5015244,9 C13.5015244,11.7887442 11.2622927,14.0494186 8.5,14.0494186 Z" id="Shape" fill="#FFFFFF"></path>
                                    <polygon id="Path" fill="#FFF115" points="10.1015244 9.52869767 10.4800854 11.7558837 9.23742683 11.0961628 9.07260976 11.0082558 8.5 10.7047674 7.92759756 11.0082558 7.76257317 11.0961628 6.51991463 11.7558837 6.89847561 9.52869767 5.29715854 7.95348837 7.51089024 7.62823256 8.5 5.60323256 9.48910976 7.62823256 11.7028415 7.95348837"></polygon>
                                </g>
                            </g>
                        </g>
                    </g>
                </g>
            </g>
        </g>
    </g>
</svg>