<?xml version="1.0" encoding="UTF-8"?>
<svg width="27px" height="22px" viewBox="0 0 27 22" version="1.1" xmlns="http://www.w3.org/2000/svg" xmlns:xlink="http://www.w3.org/1999/xlink">
    <!-- Generator: Sketch 53.2 (72643) - https://sketchapp.com -->
    <title>59165</title>
    <desc>Created with Sketch.</desc>
    <g id="Symbols" stroke="none" stroke-width="1" fill="none" fill-rule="evenodd">
        <g id="TOPO" transform="translate(-15.000000, -14.000000)" fill="#FFF115" fill-rule="nonzero">
            <g id="59165">
                <g transform="translate(15.000000, 14.000000)">
                    <path d="M26.0744413,0.201612903 C26.554517,0.201612903 26.9451954,0.519943402 26.9449051,0.911116244 L26.9449051,4.06462209 C26.9449051,4.45579493 26.5539365,4.77412543 26.074151,4.77412543 L0.8707541,4.77412543 C0.390678339,4.77412543 1.0658141e-14,4.45579493 1.0658141e-14,4.06462209 L1.0658141e-14,0.911116244 C1.0658141e-14,0.519943402 0.390678339,0.201612903 0.8707541,0.201612903 L26.0744413,0.201612903 Z M26.0744413,8.47915188 C26.554517,8.47915188 26.9451954,8.79748237 26.9449051,9.18865522 L26.9449051,12.3421611 C26.9449051,12.7333339 26.5539365,13.0516644 26.074151,13.0516644 L0.8707541,13.0516644 C0.390678339,13.0516644 1.0658141e-14,12.7333339 1.0658141e-14,12.3421611 L1.0658141e-14,9.18865522 C1.0658141e-14,8.79748237 0.390678339,8.47915188 0.8707541,8.47915188 L26.0744413,8.47915188 Z M26.0744413,16.7566908 C26.554517,16.7566908 26.9451954,17.0747848 26.9449051,17.4661942 L26.9449051,20.6197 C26.9449051,21.0108729 26.5539365,21.3292034 26.074151,21.3292034 L0.8707541,21.3292034 C0.390678339,21.3292034 1.0658141e-14,21.0108729 1.0658141e-14,20.6197 L1.0658141e-14,17.4661942 C1.0658141e-14,17.0750213 0.390678339,16.7566908 0.8707541,16.7566908 L26.0744413,16.7566908 Z" id="Combined-Shape"></path>
                </g>
            </g>
        </g>
    </g>
</svg>