<?xml version="1.0" encoding="UTF-8"?>
<svg width="20px" height="20px" viewBox="0 0 20 20" version="1.1" xmlns="http://www.w3.org/2000/svg" xmlns:xlink="http://www.w3.org/1999/xlink">
    <!-- Generator: Sketch 52.5 (67469) - http://www.bohemiancoding.com/sketch -->
    <title>68405</title>
    <desc>Created with Sketch.</desc>
    <g id="Home" stroke="none" stroke-width="1" fill="none" fill-rule="evenodd">
        <g id="produto-karcher" transform="translate(-1337.000000, -475.000000)" fill="#FFFFFF" fill-rule="nonzero">
            <g id="meio" transform="translate(315.000000, 187.000000)">
                <g id="Produto">
                    <g id="Group-41" transform="translate(990.000000, 35.000000)">
                        <g id="Group-39" transform="translate(19.000000, 183.000000)">
                            <g id="Group-36" transform="translate(0.000000, 60.000000)">
                                <g id="Group-35" transform="translate(13.000000, 5.000000)">
                                    <g id="68405" transform="translate(0.000000, 5.000000)">
                                        <path d="M9.12688608,12.4046582 C8.64101266,12.2738228 8.20607595,12.0344304 7.90217722,11.7307342 C7.77063291,11.599443 7.59579747,11.5271392 7.40987342,11.5271392 C7.22394937,11.5271392 7.04911392,11.5995949 6.91746835,11.7309873 L6.86425316,11.7841519 C6.73311392,11.9151392 6.65873418,12.0967089 6.66005063,12.2823797 C6.66151899,12.4677468 6.73878481,12.6481519 6.87210127,12.7772658 C7.46516456,13.3517468 8.30288608,13.7670886 9.17048101,13.9167089 L9.25453165,13.9312405 L9.25453165,14.5888101 C9.25453165,14.9728101 9.56693671,15.2853165 9.95103797,15.2853165 L10.0299747,15.2853165 C10.4139747,15.2853165 10.7263797,14.9728101 10.7263797,14.5888101 L10.7263797,13.9159494 L10.8087595,13.9003038 C12.2488101,13.6261266 13.1087089,12.7260759 13.1087089,11.4935696 C13.1212658,9.81746835 11.8797975,9.20562025 10.7970127,8.8598481 L10.7263797,8.83736709 L10.7263797,6.57974684 L10.8494177,6.60663291 C11.1686582,6.6764557 11.4536709,6.78313924 11.6736709,6.91529114 C11.7820759,6.98020253 11.9056709,7.01448101 12.0313418,7.01448101 C12.2734177,7.01448101 12.4943797,6.89210127 12.6225316,6.68703797 L12.6578228,6.63048101 C12.7559494,6.47341772 12.7875443,6.28010127 12.7446582,6.10020253 C12.7017215,5.92 12.5862278,5.76162025 12.4277975,5.66572152 C11.9838481,5.39711392 11.4101772,5.19878481 10.8123038,5.10734177 L10.7263797,5.09417722 L10.7263797,4.59696203 C10.7263797,4.21291139 10.4139747,3.90040506 10.0299747,3.90040506 L9.95103797,3.90040506 C9.56693671,3.90040506 9.25453165,4.21286076 9.25453165,4.59696203 L9.25453165,5.13103797 L9.17326582,5.14744304 C7.84248101,5.4158481 7.04794937,6.25078481 7.04794937,7.38081013 C7.04794937,8.59037975 7.74724051,9.41534177 9.18582278,9.90293671 L9.25453165,9.92622785 L9.25453165,12.4389367 L9.12688608,12.4046582 Z M10.7263797,10.3964557 L10.8685063,10.4586835 C11.4328608,10.7063291 11.6412658,10.984 11.6369114,11.4846582 C11.6369114,11.9016203 11.3753418,12.1989367 10.859443,12.3685063 L10.7265316,12.4120506 L10.7263797,10.3964557 Z M9.10546835,8.26663291 C8.68389873,8.04141772 8.51964557,7.79306329 8.51964557,7.38086076 C8.51964557,7.0675443 8.72111392,6.83443038 9.11822785,6.688 L9.25448101,6.63772152 L9.25448101,8.34617722 L9.10546835,8.26663291 Z" id="Shape"></path>
                                        <path d="M19.7384304,3.53711392 C19.5331139,3.37286076 19.2491139,3.3484557 19.0186835,3.47529114 L17.6503291,4.22881013 C15.9477975,1.61281013 13.0395443,0.016556962 9.88440506,0.016556962 C4.77524051,0.016556962 0.618582278,4.17316456 0.618582278,9.28237975 C0.618582278,9.84167089 1.072,10.295038 1.63124051,10.295038 C2.19058228,10.295038 2.64389873,9.84167089 2.64389873,9.28237975 C2.64389873,5.28992405 5.892,2.04187342 9.88440506,2.04187342 C12.2992405,2.04187342 14.5298734,3.23827848 15.8709367,5.20860759 L14.5892152,5.91437975 C14.3588861,6.04121519 14.2276456,6.29427848 14.2568608,6.55564557 C14.2857722,6.81696203 14.4694684,7.03508861 14.7220759,7.10825316 L18.1564051,8.10344304 C18.2157468,8.12065823 18.276557,8.12911392 18.3372658,8.12911392 C18.4459241,8.12911392 18.5539241,8.10187342 18.6507848,8.04850633 C18.8017215,7.96531646 18.9135696,7.82556962 18.9616709,7.66 L19.9568101,4.22567089 C20.0298734,3.97311392 19.9437468,3.70136709 19.7384304,3.53711392 Z" id="Path"></path>
                                        <path d="M18.3511899,9.0798481 C17.7918481,9.0798481 17.3385316,9.53321519 17.3385316,10.0925063 C17.3385316,14.0850127 14.090481,17.3330127 10.0979747,17.3330127 C7.68318987,17.3330127 5.45250633,16.1366076 4.11149367,14.1662785 L5.39321519,13.4605063 C5.6235443,13.3337215 5.75478481,13.0806582 5.72567089,12.8192911 C5.69670886,12.5579747 5.51306329,12.3397975 5.2604557,12.2667342 L1.82617722,11.2715443 C1.76683544,11.2542785 1.70602532,11.2458734 1.64531646,11.2458734 C1.53665823,11.2458734 1.42865823,11.2730633 1.33174684,11.326481 C1.18075949,11.4096709 1.06891139,11.5493671 1.02091139,11.7149873 L0.025721519,15.1492658 C-0.047443038,15.4017722 0.0386835443,15.673519 0.244,15.8378228 C0.449316456,16.0020759 0.733316456,16.0265823 0.963746835,15.8996962 L2.33210127,15.1461772 C4.03458228,17.7620759 6.94283544,19.3583291 10.0979241,19.3583291 C15.2070886,19.3583291 19.3637975,15.2017215 19.3637975,10.0925063 C19.3638481,9.53321519 18.9103797,9.0798481 18.3511899,9.0798481 Z" id="Path"></path>
                                    </g>
                                </g>
                            </g>
                        </g>
                    </g>
                </g>
            </g>
        </g>
    </g>
</svg>