<?xml version="1.0" encoding="UTF-8"?>
<svg width="10px" height="10px" viewBox="0 0 10 10" version="1.1" xmlns="http://www.w3.org/2000/svg" xmlns:xlink="http://www.w3.org/1999/xlink">
    <!-- Generator: Sketch 53.2 (72643) - https://sketchapp.com -->
    <title>Path</title>
    <desc>Created with Sketch.</desc>
    <g id="Home" stroke="none" stroke-width="1" fill="none" fill-rule="evenodd">
        <g id="catalogo-karcher" transform="translate(-481.000000, -536.000000)" fill="#F35660" fill-rule="nonzero">
            <g id="meio" transform="translate(0.000000, 171.000000)">
                <g id="Filtros-Selecionados" transform="translate(315.000000, 328.000000)">
                    <g id="txt">
                        <g id="complemento" transform="translate(0.000000, 32.000000)">
                            <g id="Path" transform="translate(166.000000, 5.000000)">
                                <path d="M4.52160156,4.96664062 L0.0953515625,9.39289062 C-0.0276171875,9.51585937 -0.0276171875,9.71507812 0.0953515625,9.83804687 C0.156757812,9.89960937 0.237382812,9.93023437 0.317851562,9.93023437 C0.398476562,9.93023437 0.478945312,9.89960937 0.540351562,9.83804687 L4.99988281,5.37851562 L9.45941406,9.83804687 C9.52097656,9.89960937 9.60144531,9.93023437 9.68191406,9.93023437 C9.76238281,9.93023437 9.84300781,9.89960937 9.90441406,9.83804687 C10.0273828,9.71507812 10.0273828,9.51585937 9.90441406,9.39289062 L5.47832031,4.96664062 L9.90738281,0.537265625 C10.0303516,0.414296875 10.0303516,0.215078125 9.90738281,0.092109375 C9.78441406,-0.030703125 9.58519531,-0.030703125 9.46238281,0.092109375 L5.00003906,4.55476562 L0.537226562,0.092265625 C0.414257812,-0.030546875 0.215195312,-0.030546875 0.0922265625,0.092265625 C-0.0307421875,0.215234375 -0.0307421875,0.414453125 0.0922265625,0.537421875 L4.52160156,4.96664062 Z"></path>
                            </g>
                        </g>
                    </g>
                </g>
            </g>
        </g>
    </g>
</svg>