<?xml version="1.0" encoding="UTF-8"?>
<svg width="16px" height="20px" viewBox="0 0 16 20" version="1.1" xmlns="http://www.w3.org/2000/svg" xmlns:xlink="http://www.w3.org/1999/xlink">
    <!-- Generator: Sketch 52.5 (67469) - http://www.bohemiancoding.com/sketch -->
    <title>633816</title>
    <desc>Created with Sketch.</desc>
    <g id="Home" stroke="none" stroke-width="1" fill="none" fill-rule="evenodd">
        <g id="produto-karcher" transform="translate(-1478.000000, -475.000000)" fill="#000000" fill-rule="nonzero">
            <g id="meio" transform="translate(315.000000, 187.000000)">
                <g id="Produto">
                    <g id="Group-41" transform="translate(990.000000, 35.000000)">
                        <g id="Group-39" transform="translate(19.000000, 183.000000)">
                            <g id="Group-37" transform="translate(138.000000, 60.000000)">
                                <g id="Group-34" transform="translate(16.000000, 5.000000)">
                                    <g id="633816" transform="translate(0.000000, 5.000000)">
                                        <path d="M15.9182056,16.1439626 L14.5488972,13.8614953 C13.916486,12.808 13.5823178,11.6013458 13.5823178,10.3731963 L13.5823178,8.37383178 C13.5823178,5.84971963 11.8979813,3.71480374 9.59476636,3.02654206 L9.59476636,1.59502804 C9.59476636,0.715364486 8.87940187,0 7.99973832,0 C7.12007477,0 6.40471028,0.715364486 6.40471028,1.59502804 L6.40471028,3.02654206 C4.10153271,3.71480374 2.41719626,5.84971963 2.41719626,8.37383178 L2.41719626,10.3731963 C2.41719626,11.6013458 2.08302804,12.8071776 1.45140187,13.8607103 L0.0820934579,16.1431776 C0.00792523364,16.2668037 0.00631775701,16.4199252 0.0773084112,16.5451215 C0.148299065,16.6703178 0.27988785,16.7477009 0.423439252,16.7477009 L15.5760748,16.7477009 C15.7196262,16.7477009 15.852,16.6703551 15.9229907,16.5459439 C15.9939813,16.4214953 15.9915888,16.2667664 15.9182056,16.1439626 Z" id="Path"></path>
                                        <path d="M5.48841121,17.5451589 C5.93820561,18.4846355 6.89042991,19.1401869 7.99973832,19.1401869 C9.10904673,19.1401869 10.0613084,18.4846355 10.5111028,17.5451589 L5.48841121,17.5451589 Z" id="Path"></path>
                                    </g>
                                </g>
                            </g>
                        </g>
                    </g>
                </g>
            </g>
        </g>
    </g>
</svg>