<?xml version="1.0" encoding="UTF-8"?>
<svg width="14px" height="14px" viewBox="0 0 14 14" version="1.1" xmlns="http://www.w3.org/2000/svg" xmlns:xlink="http://www.w3.org/1999/xlink">
    <!-- Generator: Sketch 52.5 (67469) - http://www.bohemiancoding.com/sketch -->
    <title>Shape</title>
    <desc>Created with Sketch.</desc>
    <g id="Symbols" stroke="none" stroke-width="1" fill="none" fill-rule="evenodd">
        <g id="stars" transform="translate(-57.000000, 0.000000)" fill="#FFEBAC" fill-rule="nonzero">
            <g id="star-(92)">
                <path d="M70.9876609,5.32823137 C70.9580907,5.23302802 70.8796544,5.16359796 70.7851801,5.14913336 L66.2519153,4.45772565 L64.2246011,0.146749906 C64.1825012,0.0568064154 64.0952941,0 64.0000679,0 C63.9048418,0 63.8173841,0.0568064154 63.7755348,0.146749906 L61.74797,4.45798864 L57.2147052,5.14939635 C57.1202309,5.16386095 57.0420452,5.23302802 57.0122244,5.32849436 C56.9829048,5.42343471 57.0072125,5.52810579 57.0756249,5.59779885 L60.356165,8.95358524 L59.5815757,13.692187 C59.5655376,13.7908093 59.6041292,13.8904835 59.6810619,13.9493939 C59.7584958,14.0088302 59.8609892,14.016457 59.9449385,13.9693813 L64.0000679,11.7323657 L68.0546962,13.9693813 C68.0912831,13.9896318 68.1316289,13.9996255 68.1714735,13.9996255 C68.2233467,13.9996255 68.2749693,13.9827939 68.3188234,13.9493939 C68.3960067,13.8904835 68.4345983,13.7908093 68.4183096,13.692187 L67.6439709,8.95384823 L70.9245109,5.59779885 C70.9926728,5.52757981 71.0172311,5.42317172 70.9876609,5.32823137 Z" id="Shape"></path>
            </g>
        </g>
    </g>
</svg>