<?xml version="1.0" encoding="UTF-8"?>
<svg width="14px" height="14px" viewBox="0 0 14 14" version="1.1" xmlns="http://www.w3.org/2000/svg" xmlns:xlink="http://www.w3.org/1999/xlink">
    <!-- Generator: Sketch 52.5 (67469) - http://www.bohemiancoding.com/sketch -->
    <title>Shape</title>
    <desc>Created with Sketch.</desc>
    <g id="Symbols" stroke="none" stroke-width="1" fill="none" fill-rule="evenodd">
        <g id="stars" fill="#FFCA22" fill-rule="nonzero">
            <g id="star-(92)">
                <path d="M13.9876609,5.32823137 C13.9580907,5.23302802 13.8796544,5.16359796 13.7851801,5.14913336 L9.25191525,4.45772565 L7.22460113,0.146749906 C7.18250116,0.0568064154 7.09529407,0 7.00006794,0 C6.90484182,0 6.81738414,0.0568064154 6.77553476,0.146749906 L4.74797004,4.45798864 L0.214705208,5.14939635 C0.120230866,5.16386095 0.0420452037,5.23302802 0.0122243903,5.32849436 C-0.017095233,5.42343471 0.00721248887,5.52810579 0.0756249432,5.59779885 L3.35616502,8.95358524 L2.58157565,13.692187 C2.56553757,13.7908093 2.60412921,13.8904835 2.6810619,13.9493939 C2.75849577,14.0088302 2.86098916,14.016457 2.94493851,13.9693813 L7.00006794,11.7323657 L11.0546962,13.9693813 C11.0912831,13.9896318 11.1316289,13.9996255 11.1714735,13.9996255 C11.2233467,13.9996255 11.2749693,13.9827939 11.3188234,13.9493939 C11.3960067,13.8904835 11.4345983,13.7908093 11.4183096,13.692187 L10.6439709,8.95384823 L13.9245109,5.59779885 C13.9926728,5.52757981 14.0172311,5.42317172 13.9876609,5.32823137 Z" id="Shape"></path>
            </g>
        </g>
    </g>
</svg>