<?xml version="1.0" encoding="UTF-8"?>
<svg width="17px" height="17px" viewBox="0 0 17 17" version="1.1" xmlns="http://www.w3.org/2000/svg" xmlns:xlink="http://www.w3.org/1999/xlink">
    <!-- Generator: Sketch 53.2 (72643) - https://sketchapp.com -->
    <title>noun_Store_1743269</title>
    <desc>Created with Sketch.</desc>
    <g id="Home" stroke="none" stroke-width="1" fill="none" fill-rule="evenodd">
        <g id="home-karcher" transform="translate(-704.000000, -12.000000)">
            <g id="TOPO">
                <g id="regua" transform="translate(535.000000, 12.000000)">
                    <g id="Group-3" transform="translate(169.000000, 0.000000)">
                        <g id="noun_Store_1743269" transform="translate(0.000000, -0.000000)">
                            <g id="Group">
                                <g>
                                    <path d="M2.66666667,0 L14.3333333,0 L17,5.13366337 L17,6.48019802 C17,7.82673267 16.0833333,9.0049505 14.9166667,9.0049505 C13.75,9.0049505 12.75,7.82673267 12.75,6.48019802 C12.75,7.82673267 11.8333333,9.0049505 10.6666667,9.0049505 C9.5,9.0049505 8.5,7.82673267 8.5,6.48019802 C8.5,7.82673267 7.58333333,9.0049505 6.41666667,9.0049505 C5.25,9.0049505 4.25,7.82673267 4.25,6.48019802 C4.25,7.82673267 3.33333333,9.0049505 2.16666667,9.0049505 C0.916666667,9.0049505 0,7.82673267 0,6.48019802 L0,5.13366337 L2.66666667,0 Z" id="Path" fill="#FFF115"></path>
                                    <path d="M15,9.76237624 L15,17 L2.08333333,17 L2.08333333,9.76237624 C2.91666667,9.76237624 3.66666667,9.42574257 4.25,8.75247525 C4.75,9.34158416 5.5,9.76237624 6.41666667,9.76237624 C7.25,9.76237624 8,9.34158416 8.5,8.75247525 C9,9.34158416 9.75,9.76237624 10.6666667,9.76237624 C11.5,9.76237624 12.25,9.34158416 12.75,8.75247525 C13.3333333,9.42574257 14.0833333,9.76237624 15,9.76237624 Z M11.3333333,11.3613861 L13.5,11.3613861 L13.5,13.549505 L11.3333333,13.549505 L11.3333333,11.3613861 Z M8.16666667,11.3613861 L10.3333333,11.3613861 L10.3333333,13.549505 L8.16666667,13.549505 L8.16666667,11.3613861 Z M3.75,11.3613861 L7,11.3613861 L7,15.8217822 L3.75,15.8217822 L3.75,11.3613861 Z" id="Shape" fill="#FFFFFF"></path>
                                </g>
                            </g>
                        </g>
                    </g>
                </g>
            </g>
        </g>
    </g>
</svg>