<?xml version="1.0" encoding="UTF-8"?>
<svg width="17px" height="15px" viewBox="0 0 17 15" version="1.1" xmlns="http://www.w3.org/2000/svg" xmlns:xlink="http://www.w3.org/1999/xlink">
    <!-- Generator: Sketch 53.2 (72643) - https://sketchapp.com -->
    <title>telephone-of-old-design (3)</title>
    <desc>Created with Sketch.</desc>
    <g id="Home" stroke="none" stroke-width="1" fill="none" fill-rule="evenodd">
        <g id="home-karcher" transform="translate(-1372.000000, -13.000000)" fill="#FFFFFF">
            <g id="TOPO">
                <g id="fones" transform="translate(1372.000000, 12.000000)">
                    <g id="Group-5" transform="translate(0.000000, 1.000000)">
                        <g id="telephone-of-old-design-(3)" transform="translate(0.000000, 0.000000)">
                            <g id="Shape">
                                <path d="M14.246,8.38983871 C13.1162286,8.12612903 11.6717143,7.43709677 11.1486,6.5816129 C10.8557143,6.10548387 10.8251143,5.5683871 11.0616571,5.10967742 C11.0747714,5.085 11.0976,5.04774194 11.1146,5.01870968 C11.101,4.91758065 11.1248,4.78354839 11.1981429,4.60887097 C11.2034857,4.59725806 11.2039714,4.59580645 11.2078571,4.58758065 L5.40211429,4.58758065 C5.40502857,4.59435484 5.40502857,4.59435484 5.40891429,4.60306452 C5.40891429,4.60306452 5.4094,4.60354839 5.4094,4.60403226 C5.53957143,4.80629032 5.65322857,4.98725806 5.71394286,5.10387097 C5.95437143,5.56887097 5.92328571,6.10548387 5.63137143,6.58209677 C5.1068,7.43854839 3.66277143,8.12709677 2.53202857,8.39080645 L2.21971429,13.6083871 C2.18571429,14.1808065 2.56214286,14.6482258 3.0566,14.6482258 L13.7219143,14.6482258 C14.2163714,14.6482258 14.5923143,14.1803226 14.5578286,13.6083871 L14.246,8.38983871 Z M6.64602857,11.9830645 L5.64448571,11.9830645 C5.45991429,11.9830645 5.31031429,11.8335484 5.31031429,11.6501613 C5.31031429,11.4667742 5.45991429,11.3172581 5.64448571,11.3172581 L6.64602857,11.3172581 C6.83011429,11.3172581 6.9802,11.4667742 6.9802,11.6501613 C6.9802,11.8335484 6.83011429,11.9830645 6.64602857,11.9830645 Z M6.64602857,10.7143548 L5.64448571,10.7143548 C5.45991429,10.7143548 5.31031429,10.5653226 5.31031429,10.3819355 C5.31031429,10.1970968 5.45991429,10.0490323 5.64448571,10.0490323 L6.64602857,10.0490323 C6.83011429,10.0490323 6.9802,10.1970968 6.9802,10.3819355 C6.9802,10.5653226 6.83011429,10.7143548 6.64602857,10.7143548 Z M6.64602857,9.44564516 L5.64448571,9.44564516 C5.45991429,9.44564516 5.31031429,9.2966129 5.31031429,9.11274194 C5.31031429,8.92935484 5.45991429,8.77983871 5.64448571,8.77983871 L6.64602857,8.77983871 C6.83011429,8.77983871 6.9802,8.92935484 6.9802,9.11274194 C6.9802,9.29612903 6.83011429,9.44564516 6.64602857,9.44564516 Z M8.89051429,11.9830645 L7.88945714,11.9830645 C7.70488571,11.9830645 7.55528571,11.8335484 7.55528571,11.6501613 C7.55528571,11.4667742 7.70537143,11.3172581 7.88945714,11.3172581 L8.891,11.3172581 C9.07508571,11.3172581 9.22517143,11.4667742 9.22517143,11.6501613 C9.2242,11.8335484 9.0746,11.9830645 8.89051429,11.9830645 Z M8.89051429,10.7143548 L7.88945714,10.7143548 C7.70488571,10.7143548 7.55528571,10.5653226 7.55528571,10.3819355 C7.55528571,10.1970968 7.70537143,10.0490323 7.88945714,10.0490323 L8.891,10.0490323 C9.07508571,10.0490323 9.22517143,10.1970968 9.22517143,10.3819355 C9.2242,10.5653226 9.0746,10.7143548 8.89051429,10.7143548 Z M8.89051429,9.44564516 L7.88945714,9.44564516 C7.70488571,9.44564516 7.55528571,9.2966129 7.55528571,9.11274194 C7.55528571,8.92935484 7.70537143,8.77983871 7.88945714,8.77983871 L8.891,8.77983871 C9.07508571,8.77983871 9.22517143,8.92935484 9.22517143,9.11274194 C9.2242,9.29612903 9.0746,9.44564516 8.89051429,9.44564516 Z M11.1345143,11.9830645 L10.1329714,11.9830645 C9.94888571,11.9830645 9.79928571,11.8335484 9.79928571,11.6501613 C9.79928571,11.4667742 9.94888571,11.3172581 10.1329714,11.3172581 L11.1345143,11.3172581 C11.3195714,11.3172581 11.4686857,11.4667742 11.4686857,11.6501613 C11.4686857,11.8335484 11.3200571,11.9830645 11.1345143,11.9830645 Z M11.1345143,10.7143548 L10.1329714,10.7143548 C9.94888571,10.7143548 9.79928571,10.5653226 9.79928571,10.3819355 C9.79928571,10.1970968 9.94888571,10.0490323 10.1329714,10.0490323 L11.1345143,10.0490323 C11.3195714,10.0490323 11.4686857,10.1970968 11.4686857,10.3819355 C11.4686857,10.5653226 11.3200571,10.7143548 11.1345143,10.7143548 Z M11.1345143,9.44564516 L10.1329714,9.44564516 C9.94888571,9.44564516 9.79928571,9.2966129 9.79928571,9.11274194 C9.79928571,8.92935484 9.94888571,8.77983871 10.1329714,8.77983871 L11.1345143,8.77983871 C11.3195714,8.77983871 11.4686857,8.92935484 11.4686857,9.11274194 C11.4686857,9.29612903 11.3200571,9.44564516 11.1345143,9.44564516 Z M16.6949714,5.37774194 C16.6740857,5.48225806 16.6731143,5.59112903 16.6318286,5.69032258 C16.3904286,6.27193548 15.9377429,6.7533871 15.6045429,7.28951613 C15.1746857,7.97370968 11.5216286,6.49887097 11.9922857,5.58580645 C12.1695714,5.24806452 12.8612286,4.31516129 12.9132,3.94016129 C12.9608,3.60532258 12.5158857,3.34354839 12.1049714,3.31016129 C11.0208571,3.22258065 9.63608571,3.30193548 8.48542857,3.30919355 L8.48542857,3.31016129 C8.45482857,3.31016129 8.42082857,3.30967742 8.38925714,3.30967742 C8.35817143,3.30967742 8.32417143,3.31016129 8.29357143,3.31016129 L8.29357143,3.30919355 C7.14291429,3.30193548 5.75814286,3.22306452 4.67402857,3.31016129 C4.26311429,3.34354839 3.8182,3.60532258 3.86531429,3.94016129 C3.91777143,4.31516129 4.60894286,5.24806452 4.78622857,5.58580645 C5.25785714,6.49887097 1.6048,7.97370968 1.17494286,7.28951613 C0.840771429,6.7533871 0.389057143,6.27193548 0.147171429,5.69032258 C0.106371429,5.59112903 0.1054,5.48225806 0.0845142857,5.37774194 C-0.451714286,2.99225806 1.61354286,0.558387097 4.72357143,0.308709677 C5.91114286,0.212903226 7.10162857,0.158709677 8.29357143,0.137419355 L8.29357143,0.131612903 C8.32562857,0.132096774 8.3572,0.134032258 8.38925714,0.134516129 C8.42082857,0.134032258 8.45288571,0.132096774 8.48542857,0.131612903 L8.48542857,0.137419355 C9.6764,0.158709677 10.8668857,0.212903226 12.0554286,0.308709677 C15.1649714,0.557903226 17.2302286,2.99274194 16.6949714,5.37774194 Z" fill-rule="nonzero"></path>
                            </g>
                        </g>
                    </g>
                </g>
            </g>
        </g>
    </g>
</svg>