<?xml version="1.0" encoding="UTF-8"?>
<svg width="13px" height="15px" viewBox="0 0 13 15" version="1.1" xmlns="http://www.w3.org/2000/svg" xmlns:xlink="http://www.w3.org/1999/xlink">
    <!-- Generator: Sketch 53.2 (72643) - https://sketchapp.com -->
    <title>noun_User_2303151</title>
    <desc>Created with Sketch.</desc>
    <g id="Home" stroke="none" stroke-width="1" fill="none" fill-rule="evenodd">
        <g id="home-karcher" transform="translate(-1196.000000, -68.000000)" fill="#373535">
            <g id="TOPO">
                <g id="links" transform="translate(1196.000000, 55.000000)">
                    <g id="Group-10" transform="translate(0.000000, 13.000000)">
                        <g id="noun_User_2303151">
                            <g id="Shape">
                                <path d="M3.3573,4.79833712 C3.3573,3.06654977 4.73630001,1.6625905 6.4373,1.6625905 C8.1383,1.6625905 9.5173,3.06654977 9.5173,4.79833712 C9.5173,6.53012444 8.1383,7.93408372 6.4373,7.93408372 C4.73630001,7.93408372 3.3573,6.53012444 3.3573,4.79833712 M11.8563,10.9832918 C10.9353,9.39811085 9.6863,8.56937784 9.08429999,8.22322399 C9.08229998,8.22220588 9.06530001,8.21915157 9.0613,8.21711537 C10.0623,7.41994346 10.7173,6.19313347 10.7173,4.79833712 C10.7173,2.39256788 8.8013,0.440871041 6.4373,0.440871041 C4.0733,0.440871041 2.1573,2.39256788 2.1573,4.79833712 C2.1573,6.19313347 2.8123,7.41994346 3.8133,8.21711537 C3.8083,8.21915157 3.7923,8.22220588 3.7903,8.22322399 C3.1883,8.56937784 1.9393,9.39811085 1.0183,10.9832918 C0.2403,12.3220927 0.0523000001,13.5865724 0.0003,14.2727715 C0.00830000002,14.5995814 0.2563,14.8632692 0.554300002,14.8856674 C0.882299999,14.9111199 1.1893,14.6352149 1.2003,14.2727715 C1.3093,13.0754864 1.7013,12.2202828 1.9683,11.7427941 C2.7873,10.2818213 4.0273,9.50806562 4.5773,9.16598418 C4.75629999,9.05399321 4.91129999,8.96745476 5.02130001,8.90738687 C5.02130001,8.9033145 5.01729999,8.89415157 5.01629999,8.89109726 C5.4623,9.051957 5.93629998,9.15580315 6.4373,9.15580315 C6.93829998,9.15580315 7.4113,9.051957 7.85830002,8.89109726 C7.85730001,8.89415157 7.8533,8.9033145 7.8533,8.90738687 C7.96230002,8.96745476 8.11730001,9.05399321 8.29730001,9.16598418 C8.84630002,9.50806562 10.0863,10.2818213 10.9053,11.7427941 C11.1723,12.2202828 11.5653,13.0754864 11.6743,14.2727715 C11.6853,14.6352149 11.9923,14.9111199 12.3203,14.8856674 C12.6173,14.8632692 12.8663,14.5995814 12.8743,14.2727715 C12.8213,13.5865724 12.6333,12.3220927 11.8563,10.9832918" fill-rule="nonzero"></path>
                            </g>
                        </g>
                    </g>
                </g>
            </g>
        </g>
    </g>
</svg>