<?xml version="1.0" standalone="no"?>
<!DOCTYPE svg PUBLIC "-//W3C//DTD SVG 1.1//EN" "http://www.w3.org/Graphics/SVG/1.1/DTD/svg11.dtd" >
<svg>
<metadata>
Created by FontForge 20090622 at Mon Nov 11 12:49:01 2019
 By deploy user
EllenLuff.2018
</metadata>
<defs>
<font id="Bison-Light" horiz-adv-x="346" >
  <font-face 
    font-family="Bison Light"
    font-weight="300"
    font-stretch="normal"
    units-per-em="1000"
    panose-1="0 0 4 0 0 0 0 0 0 0"
    ascent="800"
    descent="-200"
    x-height="700"
    cap-height="700"
    bbox="-32 -134 708 843"
    underline-thickness="50"
    underline-position="-50"
    unicode-range="U+0020-U+2212"
  />
<missing-glyph horiz-adv-x="600" 
 />
    <glyph glyph-name=".notdef" horiz-adv-x="600" 
 />
    <glyph glyph-name="NULL" horiz-adv-x="600" 
 />
    <glyph glyph-name="nonmarkingreturn" horiz-adv-x="600" 
 />
    <glyph glyph-name="space" unicode=" " horiz-adv-x="155" 
 />
    <glyph glyph-name="A" unicode="A" horiz-adv-x="364" 
d="M279 199h-193l-43 -199h-23l151 700h22l151 -700h-23zM274 221l-92 429l-92 -429h184z" />
    <glyph glyph-name="Aacute" unicode="&#xc1;" horiz-adv-x="344" 
d="M269 199h-193l-43 -199h-23l151 700h22l151 -700h-23zM264 221l-92 429l-92 -429h184zM182 737h-20l63 98h31z" />
    <glyph glyph-name="Acircumflex" unicode="&#xc2;" horiz-adv-x="344" 
d="M269 199h-193l-43 -199h-23l151 700h22l151 -700h-23zM264 221l-92 429l-92 -429h184zM186 835l67 -98h-20l-61 77l-61 -77h-20l68 98h27z" />
    <glyph glyph-name="Adieresis" unicode="&#xc4;" horiz-adv-x="344" 
d="M269 199h-193l-43 -199h-23l151 700h22l151 -700h-23zM264 221l-92 429l-92 -429h184zM123.5 781.5q-7.5 7.5 -18.5 7.5t-18.5 -7.5t-7.5 -18.5q0 -10 8 -18t18 -8q11 0 18.5 7.5t7.5 18.5t-7.5 18.5zM257.5 781.5q-7.5 7.5 -18.5 7.5t-18.5 -7.5t-7.5 -18.5q0 -10 8 -18
t18 -8q11 0 18.5 7.5t7.5 18.5t-7.5 18.5z" />
    <glyph glyph-name="Agrave" unicode="&#xc0;" horiz-adv-x="344" 
d="M269 199h-193l-43 -199h-23l151 700h22l151 -700h-23zM264 221l-92 429l-92 -429h184zM119 835l63 -98h-20l-74 98h31z" />
    <glyph glyph-name="Aring" unicode="&#xc5;" horiz-adv-x="344" 
d="M269 199h-193l-43 -199h-23l151 700h22l151 -700h-23zM264 221l-92 429l-92 -429h184zM209.5 752.5q15.5 15.5 15.5 37.5t-15.5 37.5t-37.5 15.5t-37.5 -15.5t-15.5 -37.5t15.5 -37.5t37.5 -15.5t37.5 15.5zM194 812q9 -9 9 -22t-9 -22t-22 -9t-22 9t-9 22t9 22t22 9
t22 -9z" />
    <glyph glyph-name="Atilde" unicode="&#xc3;" horiz-adv-x="344" 
d="M269 199h-193l-43 -199h-23l151 700h22l151 -700h-23zM264 221l-92 429l-92 -429h184zM121 772q19 0 45 -16q30 -18 53 -18q8 0 11 1q31 4 60 41l-17 13q-27 -33 -54 -33q-18 0 -41 14q-35 20 -57 20l-10 -1q-31 -4 -62 -41l17 -14q28 34 55 34z" />
    <glyph glyph-name="AE" unicode="&#xc6;" horiz-adv-x="518" 
d="M278 700h216v-22h-213v-308h149v-22h-149v-326h213v-22h-235v161h-165l-51 -161h-23l221 700h37zM259 676l-158 -493h158v493z" />
    <glyph glyph-name="B" unicode="B" horiz-adv-x="351" 
d="M276 31q41 35 41 110v73q0 74 -40 113q-21 18 -46 26q17 8 28 19q41 37 41 112v74q0 74 -41 110q-35 32 -97 32h-122v-700h139q63 0 97 31zM62 338h117q54 0 83 -28q33 -30 33 -96v-73q0 -119 -116 -119h-117v316zM62 678h100q116 0 116 -120v-74q0 -65 -34 -96
q-28 -28 -82 -28h-100v318z" />
    <glyph glyph-name="C" unicode="C" horiz-adv-x="343" 
d="M270 25q41 38 41 112v103h-22v-103q0 -65 -34 -96q-30 -28 -83 -28q-52 0 -82 28q-34 31 -34 96v426q0 65 34 96q30 28 82 28q53 0 83 -28q34 -31 34 -96v-70h22v70q0 74 -41 112q-36 34 -98 34q-61 0 -97 -34q-41 -37 -41 -112v-426q0 -75 41 -112q36 -34 97 -34
q62 0 98 34z" />
    <glyph glyph-name="Ccedilla" unicode="&#xc7;" horiz-adv-x="343" 
d="M289 492v71q0 65 -34 96q-30 28 -83 28q-52 0 -82 -28q-34 -31 -34 -96v-427q0 -65 34 -96q30 -28 82 -28q53 0 83 28q34 31 34 96v103h22v-103q0 -74 -41 -112q-31 -30 -87 -33q2 -10 11 -17l2 -2q13 -9 21 -19.5t8 -28.5q0 -22 -15.5 -37.5t-37.5 -15.5t-37.5 15.5
t-15.5 37.5h22q0 -13 9 -22t22 -9t22 9t9 22q0 11 -4.5 17t-15.5 14l-2 1q-18 14 -20 35q-55 3 -86 33q-41 38 -41 112v427q0 74 41 112q36 34 97 34q62 0 98 -34q41 -38 41 -112v-71h-22z" />
    <glyph glyph-name="D" unicode="D" horiz-adv-x="353" 
d="M276 31q41 36 41 110v414q0 74 -41 112q-36 33 -98 33h-138v-700h138q63 0 98 31zM62 678h116q55 0 83 -27q34 -31 34 -96v-414q0 -119 -117 -119h-116v656z" />
    <glyph glyph-name="Eth" unicode="&#xd0;" horiz-adv-x="383" 
d="M347 554v-413q0 -74 -41 -110q-36 -31 -98 -31h-138v338h-70v22h70v340h138q62 0 98 -34q41 -38 41 -112zM325 554q0 65 -34 96q-30 28 -83 28h-116v-318h70v-22h-70v-316h116q117 0 117 119v413z" />
    <glyph glyph-name="E" unicode="E" horiz-adv-x="299" 
d="M62 678v-308h149v-22h-149v-326h213v-22h-235v700h235v-22h-213z" />
    <glyph glyph-name="Eacute" unicode="&#xc9;" horiz-adv-x="299" 
d="M62 678v-308h149v-22h-149v-326h213v-22h-235v700h235v-22h-213zM168 737h-20l63 98h31z" />
    <glyph glyph-name="Ecircumflex" unicode="&#xca;" horiz-adv-x="299" 
d="M62 678v-308h149v-22h-149v-326h213v-22h-235v700h235v-22h-213zM172 835l67 -98h-20l-61 77l-61 -77h-20l68 98h27z" />
    <glyph glyph-name="Edieresis" unicode="&#xcb;" horiz-adv-x="299" 
d="M62 678v-308h149v-22h-149v-326h213v-22h-235v700h235v-22h-213zM109.5 781.5q-7.5 7.5 -18.5 7.5t-18.5 -7.5t-7.5 -18.5q0 -10 8 -18t18 -8q11 0 18.5 7.5t7.5 18.5t-7.5 18.5zM243.5 781.5q-7.5 7.5 -18.5 7.5t-18.5 -7.5t-7.5 -18.5q0 -10 8 -18t18 -8q11 0 18.5 7.5
t7.5 18.5t-7.5 18.5z" />
    <glyph glyph-name="Egrave" unicode="&#xc8;" horiz-adv-x="299" 
d="M62 678v-308h149v-22h-149v-326h213v-22h-235v700h235v-22h-213zM105 835l63 -98h-20l-74 98h31z" />
    <glyph glyph-name="F" unicode="F" horiz-adv-x="292" 
d="M62 678v-309h149v-22h-149v-347h-22v700h235v-22h-213z" />
    <glyph glyph-name="G" unicode="G" 
d="M271 24q41 38 41 112v225h-139v-22h117v-203q0 -64 -34 -96q-30 -27 -83 -27q-54 0 -83 27q-34 31 -34 96v427q0 65 34 96q30 28 83 28q52 0 83 -28q34 -32 34 -96v-70h22v70q0 74 -41 112q-37 34 -98 34t-98 -34q-41 -38 -41 -112v-427q0 -74 41 -112q36 -33 98 -33
t98 33z" />
    <glyph glyph-name="H" unicode="H" horiz-adv-x="367" 
d="M322 700v-700h-22v348h-233v-348h-22v700h22v-330h233v330h22z" />
    <glyph glyph-name="I" unicode="I" horiz-adv-x="122" 
d="M72 700h-22v-700h22v700z" />
    <glyph glyph-name="Iacute" unicode="&#xcd;" horiz-adv-x="122" 
d="M72 700h-22v-700h22v700zM71 737h-20l63 98h31z" />
    <glyph glyph-name="Icircumflex" unicode="&#xce;" horiz-adv-x="122" 
d="M72 700h-22v-700h22v700zM75 835l67 -98h-20l-61 77l-61 -77h-20l68 98h27z" />
    <glyph glyph-name="Idieresis" unicode="&#xcf;" horiz-adv-x="122" 
d="M72 700h-22v-700h22v700zM12.5 781.5q-7.5 7.5 -18.5 7.5t-18.5 -7.5t-7.5 -18.5q0 -10 7.5 -18t18.5 -8t18.5 7.5t7.5 18.5t-7.5 18.5zM146.5 781.5q-7.5 7.5 -18.5 7.5t-18.5 -7.5t-7.5 -18.5q0 -10 8 -18t18 -8q11 0 18.5 7.5t7.5 18.5t-7.5 18.5z" />
    <glyph glyph-name="Igrave" unicode="&#xcc;" horiz-adv-x="122" 
d="M72 700h-22v-700h22v700zM8 835l63 -98h-20l-74 98h31z" />
    <glyph glyph-name="J" unicode="J" horiz-adv-x="342" 
d="M265 24q41 39 41 112v564h-22v-564q0 -64 -34 -96q-30 -27 -83 -27t-83 27q-34 32 -34 96v100h-22v-100q0 -73 41 -112q36 -33 98 -33t98 33z" />
    <glyph glyph-name="K" unicode="K" horiz-adv-x="352" 
d="M184 368l150 -368h-24l-139 341l-109 -242v-99h-22v700h22v-548l247 548h24z" />
    <glyph glyph-name="L" unicode="L" horiz-adv-x="293" 
d="M275 22h-213v678h-22v-700h235v22z" />
    <glyph glyph-name="M" unicode="M" horiz-adv-x="487" 
d="M435 700h12v-700h-22v610l-175 -500h-12l-176 500v-610h-22v700h12l192 -545z" />
    <glyph glyph-name="N" unicode="N" horiz-adv-x="377" 
d="M332 0h-12l-253 621v-621h-22v700h12l253 -621v621h22v-700z" />
    <glyph glyph-name="Ntilde" unicode="&#xd1;" horiz-adv-x="377" 
d="M332 0h-12l-253 621v-621h-22v700h12l253 -621v621h22v-700zM140 772q19 0 45 -16q30 -18 53 -18q8 0 11 1q31 4 60 41l-17 13q-27 -33 -54 -33q-18 0 -41 14q-35 20 -57 20l-10 -1q-31 -4 -62 -41l17 -14q28 34 55 34z" />
    <glyph glyph-name="O" unicode="O" 
d="M271 24q41 39 41 113v426q0 74 -41 112q-37 34 -98 34t-98 -34q-41 -38 -41 -112v-426q0 -74 41 -113q38 -33 98 -33t98 33zM256 659q34 -32 34 -96v-426q0 -65 -34 -96q-29 -28 -83 -28q-55 0 -83 28q-34 30 -34 96v426q0 65 34 96q30 28 83 28q52 0 83 -28z" />
    <glyph glyph-name="Oacute" unicode="&#xd3;" 
d="M271 24q41 39 41 113v426q0 74 -41 112q-37 34 -98 34t-98 -34q-41 -38 -41 -112v-426q0 -74 41 -113q38 -33 98 -33t98 33zM256 659q34 -32 34 -96v-426q0 -65 -34 -96q-29 -28 -83 -28q-55 0 -83 28q-34 30 -34 96v426q0 65 34 96q30 28 83 28q52 0 83 -28zM183 737
h-20l63 98h31z" />
    <glyph glyph-name="Ocircumflex" unicode="&#xd4;" 
d="M271 24q41 39 41 113v426q0 74 -41 112q-37 34 -98 34t-98 -34q-41 -38 -41 -112v-426q0 -74 41 -113q38 -33 98 -33t98 33zM256 659q34 -32 34 -96v-426q0 -65 -34 -96q-29 -28 -83 -28q-55 0 -83 28q-34 30 -34 96v426q0 65 34 96q30 28 83 28q52 0 83 -28zM187 835
l67 -98h-20l-61 77l-61 -77h-20l68 98h27z" />
    <glyph glyph-name="Odieresis" unicode="&#xd6;" 
d="M271 24q41 39 41 113v426q0 74 -41 112q-37 34 -98 34t-98 -34q-41 -38 -41 -112v-426q0 -74 41 -113q38 -33 98 -33t98 33zM256 659q34 -32 34 -96v-426q0 -65 -34 -96q-29 -28 -83 -28q-55 0 -83 28q-34 30 -34 96v426q0 65 34 96q30 28 83 28q52 0 83 -28z
M123.5 781.5q-7.5 7.5 -18.5 7.5t-18.5 -7.5t-7.5 -18.5q0 -10 8 -18t18 -8q11 0 18.5 7.5t7.5 18.5t-7.5 18.5zM257.5 781.5q-7.5 7.5 -18.5 7.5t-18.5 -7.5t-7.5 -18.5q0 -10 8 -18t18 -8q11 0 18.5 7.5t7.5 18.5t-7.5 18.5z" />
    <glyph glyph-name="Ograve" unicode="&#xd2;" 
d="M271 24q41 39 41 113v426q0 74 -41 112q-37 34 -98 34t-98 -34q-41 -38 -41 -112v-426q0 -74 41 -113q38 -33 98 -33t98 33zM256 659q34 -32 34 -96v-426q0 -65 -34 -96q-29 -28 -83 -28q-55 0 -83 28q-34 30 -34 96v426q0 65 34 96q30 28 83 28q52 0 83 -28zM120 835
l63 -98h-20l-74 98h31z" />
    <glyph glyph-name="Oslash" unicode="&#xd8;" horiz-adv-x="366" 
d="M307 639q14 -29 14 -74v-428q0 -75 -41 -112q-36 -34 -97 -34q-62 0 -98 34q-5 4 -13 14l-18 -46l-20 8l24 62q-14 31 -14 74v428q0 73 41 112q35 33 98 33t97 -33l13 -14l18 47l21 -8zM70 94l213 544q-7 13 -18 22q-28 28 -82 28q-55 0 -83 -28q-34 -30 -34 -95v-428
q0 -26 4 -43zM295 607l-213 -543q8 -14 18 -23q30 -28 83 -28q52 0 82 28q34 31 34 96v428q0 26 -4 42z" />
    <glyph glyph-name="Otilde" unicode="&#xd5;" 
d="M271 24q41 39 41 113v426q0 74 -41 112q-37 34 -98 34t-98 -34q-41 -38 -41 -112v-426q0 -74 41 -113q38 -33 98 -33t98 33zM256 659q34 -32 34 -96v-426q0 -65 -34 -96q-29 -28 -83 -28q-55 0 -83 28q-34 30 -34 96v426q0 65 34 96q30 28 83 28q52 0 83 -28zM125 772
q19 0 45 -16q30 -18 53 -18q8 0 11 1q31 4 60 41l-17 13q-27 -33 -54 -33q-18 0 -41 14q-35 20 -57 20l-10 -1q-31 -4 -62 -41l17 -14q28 34 55 34z" />
    <glyph glyph-name="OE" unicode="&#x152;" horiz-adv-x="490" 
d="M253 678v-308h149v-22h-149v-326h213v-22h-235h-58q-61 0 -98 34q-41 38 -41 112v408q0 74 41 112q37 34 98 34h58h235v-22h-213zM231 22v656h-58q-53 0 -83 -28q-34 -31 -34 -96v-408q0 -65 34 -96q30 -28 83 -28h58z" />
    <glyph glyph-name="P" unicode="P" horiz-adv-x="340" 
d="M62 319h116q64 0 98 33q41 38 41 112v89q0 74 -41 113q-37 34 -98 34h-138v-700h22v319zM62 678h116q53 0 83 -28q34 -33 34 -97v-89q0 -65 -34 -96q-28 -27 -83 -27h-116v337z" />
    <glyph glyph-name="Q" unicode="Q" 
d="M351 -112v-22h-14q-54 0 -86 29q-36 34 -36 99v1q-17 -4 -42 -4q-62 0 -98 33q-41 38 -41 112v427q0 74 41 112q37 34 98 34t98 -34q40 -37 40 -112v-427q0 -75 -40 -112q-15 -14 -34 -21v-9q0 -56 29 -82q26 -24 71 -24h14zM173 13q53 0 83 27q33 32 33 96v427
q0 65 -33 96q-31 28 -83 28q-53 0 -83 -28q-34 -31 -34 -96v-427q0 -65 34 -96q29 -27 83 -27z" />
    <glyph glyph-name="R" unicode="R" horiz-adv-x="343" 
d="M318 0h-23l-87 321q-9 -2 -29 -2h-117v-319h-22v700h139q61 0 98 -34q41 -39 41 -113v-89q0 -74 -41 -112q-20 -19 -48 -26zM262 368q34 32 34 96v89q0 63 -34 97q-31 28 -83 28h-117v-337h117q53 0 83 27z" />
    <glyph glyph-name="S" unicode="S" horiz-adv-x="333" 
d="M265 25q41 38 41 112v50q0 81 -50 134q-18 19 -37 31t-46 25q-29 15 -46 25t-33 26q-44 46 -44 116v20q0 64 34 95q29 28 83 28t83 -28q34 -30 34 -95v-69h22v69q0 73 -41 112q-36 33 -98 33t-98 -33q-41 -39 -41 -112v-20q0 -79 50 -131q18 -19 37 -30.5t47 -24.5
q27 -13 44.5 -24t33.5 -28q44 -47 44 -119v-50q0 -65 -34 -96q-31 -28 -83 -28t-83 28q-34 32 -34 96v105h-22v-105q0 -74 41 -112q37 -34 98 -34t98 34z" />
    <glyph glyph-name="T" unicode="T" horiz-adv-x="303" 
d="M291 678h-127v-678h-22v678h-129v22h278v-22z" />
    <glyph glyph-name="U" unicode="U" horiz-adv-x="344" 
d="M270 25q41 38 41 112v563h-22v-563q0 -65 -34 -96q-30 -28 -83 -28q-52 0 -83 28q-34 32 -34 96v563h-22v-563q0 -74 41 -112q37 -34 98 -34t98 34z" />
    <glyph glyph-name="Uacute" unicode="&#xda;" horiz-adv-x="344" 
d="M270 25q41 38 41 112v563h-22v-563q0 -65 -34 -96q-30 -28 -83 -28q-52 0 -83 28q-34 32 -34 96v563h-22v-563q0 -74 41 -112q37 -34 98 -34t98 34zM182 737h-20l63 98h31z" />
    <glyph glyph-name="Ucircumflex" unicode="&#xdb;" horiz-adv-x="344" 
d="M270 25q41 38 41 112v563h-22v-563q0 -65 -34 -96q-30 -28 -83 -28q-52 0 -83 28q-34 32 -34 96v563h-22v-563q0 -74 41 -112q37 -34 98 -34t98 34zM187 835l67 -98h-20l-61 77l-61 -77h-20l68 98h27z" />
    <glyph glyph-name="Udieresis" unicode="&#xdc;" horiz-adv-x="344" 
d="M270 25q41 38 41 112v563h-22v-563q0 -65 -34 -96q-30 -28 -83 -28q-52 0 -83 28q-34 32 -34 96v563h-22v-563q0 -74 41 -112q37 -34 98 -34t98 34zM123.5 781.5q-7.5 7.5 -18.5 7.5t-18.5 -7.5t-7.5 -18.5q0 -10 8 -18t18 -8q11 0 18.5 7.5t7.5 18.5t-7.5 18.5z
M257.5 781.5q-7.5 7.5 -18.5 7.5t-18.5 -7.5t-7.5 -18.5q0 -10 8 -18t18 -8q11 0 18.5 7.5t7.5 18.5t-7.5 18.5z" />
    <glyph glyph-name="Ugrave" unicode="&#xd9;" horiz-adv-x="344" 
d="M270 25q41 38 41 112v563h-22v-563q0 -65 -34 -96q-30 -28 -83 -28q-52 0 -83 28q-34 32 -34 96v563h-22v-563q0 -74 41 -112q37 -34 98 -34t98 34zM119 835l63 -98h-20l-74 98h31z" />
    <glyph glyph-name="V" unicode="V" horiz-adv-x="351" 
d="M164 0l-150 700h22l140 -651l139 651h22l-150 -700h-23z" />
    <glyph glyph-name="W" unicode="W" horiz-adv-x="497" 
d="M478 700l-86 -700h-12l-131 527l-132 -527h-12l-85 700h22l74 -616l127 505h12l126 -505l74 616h23z" />
    <glyph glyph-name="Wacute" unicode="&#x1e82;" horiz-adv-x="497" 
d="M478 700l-86 -700h-12l-131 527l-132 -527h-12l-85 700h22l74 -616l127 505h12l126 -505l74 616h23zM259 737h-20l63 98h31z" />
    <glyph glyph-name="Wcircumflex" unicode="&#x174;" horiz-adv-x="497" 
d="M478 700l-86 -700h-12l-131 527l-132 -527h-12l-85 700h22l74 -616l127 505h12l126 -505l74 616h23zM263 835l67 -98h-20l-61 77l-61 -77h-20l68 98h27z" />
    <glyph glyph-name="Wdieresis" unicode="&#x1e84;" horiz-adv-x="497" 
d="M478 700l-86 -700h-12l-131 527l-132 -527h-12l-85 700h22l74 -616l127 505h12l126 -505l74 616h23zM200.5 781.5q-7.5 7.5 -18.5 7.5t-18.5 -7.5t-7.5 -18.5q0 -10 8 -18t18 -8q11 0 18.5 7.5t7.5 18.5t-7.5 18.5zM334.5 781.5q-7.5 7.5 -18.5 7.5t-18.5 -7.5
t-7.5 -18.5q0 -10 8 -18t18 -8q11 0 18.5 7.5t7.5 18.5t-7.5 18.5z" />
    <glyph glyph-name="Wgrave" unicode="&#x1e80;" horiz-adv-x="497" 
d="M478 700l-86 -700h-12l-131 527l-132 -527h-12l-85 700h22l74 -616l127 505h12l126 -505l74 616h23zM196 835l63 -98h-20l-74 98h31z" />
    <glyph glyph-name="X" unicode="X" horiz-adv-x="360" 
d="M44 0h-23l143 349l-149 351h24l141 -334l142 334h24l-149 -351l143 -349h-23l-137 332z" />
    <glyph glyph-name="Y" unicode="Y" 
d="M314 700h23l-153 -463v-237h-22v237l-153 463h23l141 -426z" />
    <glyph glyph-name="Yacute" unicode="&#xdd;" 
d="M314 700h23l-153 -463v-237h-22v237l-153 463h23l141 -426zM183 737h-20l63 98h31z" />
    <glyph glyph-name="Ycircumflex" unicode="&#x176;" 
d="M314 700h23l-153 -463v-237h-22v237l-153 463h23l141 -426zM187 835l67 -98h-20l-61 77l-61 -77h-20l68 98h27z" />
    <glyph glyph-name="Ydieresis" unicode="&#x178;" 
d="M314 700h23l-153 -463v-237h-22v237l-153 463h23l141 -426zM128.5 781.5q-7.5 7.5 -18.5 7.5t-18.5 -7.5t-7.5 -18.5q0 -10 8 -18t18 -8q11 0 18.5 7.5t7.5 18.5t-7.5 18.5zM262.5 781.5q-7.5 7.5 -18.5 7.5t-18.5 -7.5t-7.5 -18.5q0 -10 8 -18t18 -8q11 0 18.5 7.5
t7.5 18.5t-7.5 18.5z" />
    <glyph glyph-name="Ygrave" unicode="&#x1ef2;" 
d="M314 700h23l-153 -463v-237h-22v237l-153 463h23l141 -426zM120 835l63 -98h-20l-74 98h31z" />
    <glyph glyph-name="Z" unicode="Z" horiz-adv-x="318" 
d="M298 22h-247l246 678h-277v-22h246l-246 -678h278v22z" />
    <glyph glyph-name="a" unicode="a" horiz-adv-x="364" 
d="M279 199h-193l-43 -199h-23l151 700h22l151 -700h-23zM274 221l-92 429l-92 -429h184z" />
    <glyph glyph-name="aacute" unicode="&#xe1;" horiz-adv-x="364" 
d="M279 199h-193l-43 -199h-23l151 700h22l151 -700h-23zM274 221l-92 429l-92 -429h184zM192 737h-20l63 98h31z" />
    <glyph glyph-name="acircumflex" unicode="&#xe2;" horiz-adv-x="364" 
d="M279 199h-193l-43 -199h-23l151 700h22l151 -700h-23zM274 221l-92 429l-92 -429h184zM196 835l67 -98h-20l-61 77l-61 -77h-20l68 98h27z" />
    <glyph glyph-name="adieresis" unicode="&#xe4;" horiz-adv-x="364" 
d="M279 199h-193l-43 -199h-23l151 700h22l151 -700h-23zM274 221l-92 429l-92 -429h184zM133.5 781.5q-7.5 7.5 -18.5 7.5t-18.5 -7.5t-7.5 -18.5q0 -10 8 -18t18 -8q11 0 18.5 7.5t7.5 18.5t-7.5 18.5zM267.5 781.5q-7.5 7.5 -18.5 7.5t-18.5 -7.5t-7.5 -18.5q0 -10 8 -18
t18 -8q11 0 18.5 7.5t7.5 18.5t-7.5 18.5z" />
    <glyph glyph-name="agrave" unicode="&#xe0;" horiz-adv-x="364" 
d="M279 199h-193l-43 -199h-23l151 700h22l151 -700h-23zM274 221l-92 429l-92 -429h184zM129 835l63 -98h-20l-74 98h31z" />
    <glyph glyph-name="aring" unicode="&#xe5;" horiz-adv-x="364" 
d="M279 199h-193l-43 -199h-23l151 700h22l151 -700h-23zM274 221l-92 429l-92 -429h184zM219.5 752.5q15.5 15.5 15.5 37.5t-15.5 37.5t-37.5 15.5t-37.5 -15.5t-15.5 -37.5t15.5 -37.5t37.5 -15.5t37.5 15.5zM204 812q9 -9 9 -22t-9 -22t-22 -9t-22 9t-9 22t9 22t22 9
t22 -9z" />
    <glyph glyph-name="atilde" unicode="&#xe3;" horiz-adv-x="364" 
d="M279 199h-193l-43 -199h-23l151 700h22l151 -700h-23zM274 221l-92 429l-92 -429h184zM131 772q19 0 45 -16q30 -18 53 -18q8 0 11 1q31 4 60 41l-17 13q-27 -33 -54 -33q-18 0 -41 14q-35 20 -57 20l-10 -1q-31 -4 -62 -41l17 -14q28 34 55 34z" />
    <glyph glyph-name="ae" unicode="&#xe6;" horiz-adv-x="518" 
d="M278 700h216v-22h-213v-308h149v-22h-149v-326h213v-22h-235v161h-165l-51 -161h-23l221 700h37zM259 676l-158 -493h158v493z" />
    <glyph glyph-name="b" unicode="b" horiz-adv-x="351" 
d="M276 31q41 35 41 110v73q0 74 -40 113q-21 18 -46 26q17 8 28 19q41 37 41 112v74q0 74 -41 110q-35 32 -97 32h-122v-700h139q63 0 97 31zM62 338h117q54 0 83 -28q33 -30 33 -96v-73q0 -119 -116 -119h-117v316zM62 678h100q116 0 116 -120v-74q0 -65 -34 -96
q-28 -28 -82 -28h-100v318z" />
    <glyph glyph-name="c" unicode="c" horiz-adv-x="343" 
d="M270 25q41 38 41 112v103h-22v-103q0 -65 -34 -96q-30 -28 -83 -28q-52 0 -82 28q-34 31 -34 96v426q0 65 34 96q30 28 82 28q53 0 83 -28q34 -31 34 -96v-70h22v70q0 74 -41 112q-36 34 -98 34q-61 0 -97 -34q-41 -37 -41 -112v-426q0 -75 41 -112q36 -34 97 -34
q62 0 98 34z" />
    <glyph glyph-name="ccedilla" unicode="&#xe7;" horiz-adv-x="343" 
d="M289 492v71q0 65 -34 96q-30 28 -83 28q-52 0 -82 -28q-34 -31 -34 -96v-427q0 -65 34 -96q30 -28 82 -28q53 0 83 28q34 31 34 96v103h22v-103q0 -74 -41 -112q-31 -30 -87 -33q2 -10 11 -17l2 -2q13 -9 21 -19.5t8 -28.5q0 -22 -15.5 -37.5t-37.5 -15.5t-37.5 15.5
t-15.5 37.5h22q0 -13 9 -22t22 -9t22 9t9 22q0 11 -4.5 17t-15.5 14l-2 1q-18 14 -20 35q-55 3 -86 33q-41 38 -41 112v427q0 74 41 112q36 34 97 34q62 0 98 -34q41 -38 41 -112v-71h-22z" />
    <glyph glyph-name="d" unicode="d" horiz-adv-x="353" 
d="M276 31q41 36 41 110v414q0 74 -41 112q-36 33 -98 33h-138v-700h138q63 0 98 31zM62 678h116q55 0 83 -27q34 -31 34 -96v-414q0 -119 -117 -119h-116v656z" />
    <glyph glyph-name="eth" unicode="&#xf0;" horiz-adv-x="383" 
d="M347 554v-413q0 -74 -41 -110q-36 -31 -98 -31h-138v338h-70v22h70v340h138q62 0 98 -34q41 -38 41 -112zM325 554q0 65 -34 96q-30 28 -83 28h-116v-318h70v-22h-70v-316h116q117 0 117 119v413z" />
    <glyph glyph-name="e" unicode="e" horiz-adv-x="299" 
d="M62 678v-308h149v-22h-149v-326h213v-22h-235v700h235v-22h-213z" />
    <glyph glyph-name="eacute" unicode="&#xe9;" horiz-adv-x="299" 
d="M62 678v-308h149v-22h-149v-326h213v-22h-235v700h235v-22h-213zM168 737h-20l63 98h31z" />
    <glyph glyph-name="ecircumflex" unicode="&#xea;" horiz-adv-x="299" 
d="M62 678v-308h149v-22h-149v-326h213v-22h-235v700h235v-22h-213zM172 835l67 -98h-20l-61 77l-61 -77h-20l68 98h27z" />
    <glyph glyph-name="edieresis" unicode="&#xeb;" horiz-adv-x="299" 
d="M62 678v-308h149v-22h-149v-326h213v-22h-235v700h235v-22h-213zM109.5 781.5q-7.5 7.5 -18.5 7.5t-18.5 -7.5t-7.5 -18.5q0 -10 8 -18t18 -8q11 0 18.5 7.5t7.5 18.5t-7.5 18.5zM243.5 781.5q-7.5 7.5 -18.5 7.5t-18.5 -7.5t-7.5 -18.5q0 -10 8 -18t18 -8q11 0 18.5 7.5
t7.5 18.5t-7.5 18.5z" />
    <glyph glyph-name="egrave" unicode="&#xe8;" horiz-adv-x="299" 
d="M62 678v-308h149v-22h-149v-326h213v-22h-235v700h235v-22h-213zM105 835l63 -98h-20l-74 98h31z" />
    <glyph glyph-name="f" unicode="f" horiz-adv-x="292" 
d="M62 678v-309h149v-22h-149v-347h-22v700h235v-22h-213z" />
    <glyph glyph-name="g" unicode="g" 
d="M271 24q41 38 41 112v225h-139v-22h117v-203q0 -64 -34 -96q-30 -27 -83 -27q-54 0 -83 27q-34 31 -34 96v427q0 65 34 96q30 28 83 28q52 0 83 -28q34 -32 34 -96v-70h22v70q0 74 -41 112q-37 34 -98 34t-98 -34q-41 -38 -41 -112v-427q0 -74 41 -112q36 -33 98 -33
t98 33z" />
    <glyph glyph-name="h" unicode="h" horiz-adv-x="367" 
d="M322 700v-700h-22v348h-233v-348h-22v700h22v-330h233v330h22z" />
    <glyph glyph-name="i" unicode="i" horiz-adv-x="122" 
d="M72 700h-22v-700h22v700z" />
    <glyph glyph-name="iacute" unicode="&#xed;" horiz-adv-x="122" 
d="M72 700h-22v-700h22v700zM71 737h-20l63 98h31z" />
    <glyph glyph-name="icircumflex" unicode="&#xee;" horiz-adv-x="122" 
d="M72 700h-22v-700h22v700zM75 835l67 -98h-20l-61 77l-61 -77h-20l68 98h27z" />
    <glyph glyph-name="idieresis" unicode="&#xef;" horiz-adv-x="122" 
d="M72 700h-22v-700h22v700zM12.5 781.5q-7.5 7.5 -18.5 7.5t-18.5 -7.5t-7.5 -18.5q0 -10 7.5 -18t18.5 -8t18.5 7.5t7.5 18.5t-7.5 18.5zM146.5 781.5q-7.5 7.5 -18.5 7.5t-18.5 -7.5t-7.5 -18.5q0 -10 8 -18t18 -8q11 0 18.5 7.5t7.5 18.5t-7.5 18.5z" />
    <glyph glyph-name="igrave" unicode="&#xec;" horiz-adv-x="122" 
d="M72 700h-22v-700h22v700zM8 835l63 -98h-20l-74 98h31z" />
    <glyph glyph-name="j" unicode="j" horiz-adv-x="342" 
d="M265 24q41 39 41 112v564h-22v-564q0 -64 -34 -96q-30 -27 -83 -27t-83 27q-34 32 -34 96v100h-22v-100q0 -73 41 -112q36 -33 98 -33t98 33z" />
    <glyph glyph-name="k" unicode="k" horiz-adv-x="352" 
d="M204 366l130 -366h-23l-119 335l-130 -335h-22v700h22v-641l248 641h24z" />
    <glyph glyph-name="l" unicode="l" horiz-adv-x="293" 
d="M275 22h-213v678h-22v-700h235v22z" />
    <glyph glyph-name="m" unicode="m" horiz-adv-x="487" 
d="M435 700h12v-700h-22v610l-175 -500h-12l-176 500v-610h-22v700h12l192 -545z" />
    <glyph glyph-name="n" unicode="n" horiz-adv-x="377" 
d="M332 0h-12l-253 621v-621h-22v700h12l253 -621v621h22v-700z" />
    <glyph glyph-name="ntilde" unicode="&#xf1;" horiz-adv-x="377" 
d="M332 0h-12l-253 621v-621h-22v700h12l253 -621v621h22v-700zM140 772q19 0 45 -16q30 -18 53 -18q8 0 11 1q31 4 60 41l-17 13q-27 -33 -54 -33q-18 0 -41 14q-35 20 -57 20l-10 -1q-31 -4 -62 -41l17 -14q28 34 55 34z" />
    <glyph glyph-name="o" unicode="o" 
d="M271 24q41 39 41 113v426q0 74 -41 112q-37 34 -98 34t-98 -34q-41 -38 -41 -112v-426q0 -74 41 -113q38 -33 98 -33t98 33zM256 659q34 -32 34 -96v-426q0 -65 -34 -96q-29 -28 -83 -28q-55 0 -83 28q-34 30 -34 96v426q0 65 34 96q30 28 83 28q52 0 83 -28z" />
    <glyph glyph-name="oacute" unicode="&#xf3;" 
d="M271 24q41 39 41 113v426q0 74 -41 112q-37 34 -98 34t-98 -34q-41 -38 -41 -112v-426q0 -74 41 -113q38 -33 98 -33t98 33zM256 659q34 -32 34 -96v-426q0 -65 -34 -96q-29 -28 -83 -28q-55 0 -83 28q-34 30 -34 96v426q0 65 34 96q30 28 83 28q52 0 83 -28zM183 737
h-20l63 98h31z" />
    <glyph glyph-name="ocircumflex" unicode="&#xf4;" 
d="M271 24q41 39 41 113v426q0 74 -41 112q-37 34 -98 34t-98 -34q-41 -38 -41 -112v-426q0 -74 41 -113q38 -33 98 -33t98 33zM256 659q34 -32 34 -96v-426q0 -65 -34 -96q-29 -28 -83 -28q-55 0 -83 28q-34 30 -34 96v426q0 65 34 96q30 28 83 28q52 0 83 -28zM187 835
l67 -98h-20l-61 77l-61 -77h-20l68 98h27z" />
    <glyph glyph-name="odieresis" unicode="&#xf6;" 
d="M271 24q41 39 41 113v426q0 74 -41 112q-37 34 -98 34t-98 -34q-41 -38 -41 -112v-426q0 -74 41 -113q38 -33 98 -33t98 33zM256 659q34 -32 34 -96v-426q0 -65 -34 -96q-29 -28 -83 -28q-55 0 -83 28q-34 30 -34 96v426q0 65 34 96q30 28 83 28q52 0 83 -28z
M123.5 781.5q-7.5 7.5 -18.5 7.5t-18.5 -7.5t-7.5 -18.5q0 -10 8 -18t18 -8q11 0 18.5 7.5t7.5 18.5t-7.5 18.5zM257.5 781.5q-7.5 7.5 -18.5 7.5t-18.5 -7.5t-7.5 -18.5q0 -10 8 -18t18 -8q11 0 18.5 7.5t7.5 18.5t-7.5 18.5z" />
    <glyph glyph-name="ograve" unicode="&#xf2;" 
d="M271 24q41 39 41 113v426q0 74 -41 112q-37 34 -98 34t-98 -34q-41 -38 -41 -112v-426q0 -74 41 -113q38 -33 98 -33t98 33zM256 659q34 -32 34 -96v-426q0 -65 -34 -96q-29 -28 -83 -28q-55 0 -83 28q-34 30 -34 96v426q0 65 34 96q30 28 83 28q52 0 83 -28zM120 835
l63 -98h-20l-74 98h31z" />
    <glyph glyph-name="oslash" unicode="&#xf8;" horiz-adv-x="366" 
d="M307 639q14 -29 14 -74v-428q0 -75 -41 -112q-36 -34 -97 -34q-62 0 -98 34q-5 4 -13 14l-18 -46l-20 8l24 62q-14 31 -14 74v428q0 73 41 112q35 33 98 33t97 -33l13 -14l18 47l21 -8zM70 94l213 544q-7 13 -18 22q-28 28 -82 28q-55 0 -83 -28q-34 -30 -34 -95v-428
q0 -26 4 -43zM295 607l-213 -543q8 -14 18 -23q30 -28 83 -28q52 0 82 28q34 31 34 96v428q0 26 -4 42z" />
    <glyph glyph-name="otilde" unicode="&#xf5;" 
d="M271 24q41 39 41 113v426q0 74 -41 112q-37 34 -98 34t-98 -34q-41 -38 -41 -112v-426q0 -74 41 -113q38 -33 98 -33t98 33zM256 659q34 -32 34 -96v-426q0 -65 -34 -96q-29 -28 -83 -28q-55 0 -83 28q-34 30 -34 96v426q0 65 34 96q30 28 83 28q52 0 83 -28zM125 772
q19 0 45 -16q30 -18 53 -18q8 0 11 1q31 4 60 41l-17 13q-27 -33 -54 -33q-18 0 -41 14q-35 20 -57 20l-10 -1q-31 -4 -62 -41l17 -14q28 34 55 34z" />
    <glyph glyph-name="oe" unicode="&#x153;" horiz-adv-x="490" 
d="M253 678v-308h149v-22h-149v-326h213v-22h-235h-58q-61 0 -98 34q-41 38 -41 112v408q0 74 41 112q37 34 98 34h58h235v-22h-213zM231 22v656h-58q-53 0 -83 -28q-34 -31 -34 -96v-408q0 -65 34 -96q30 -28 83 -28h58z" />
    <glyph glyph-name="p" unicode="p" horiz-adv-x="340" 
d="M62 319h116q64 0 98 33q41 38 41 112v89q0 74 -41 113q-37 34 -98 34h-138v-700h22v319zM62 678h116q53 0 83 -28q34 -33 34 -97v-89q0 -65 -34 -96q-28 -27 -83 -27h-116v337z" />
    <glyph glyph-name="q" unicode="q" 
d="M351 -112v-22h-14q-54 0 -86 29q-36 34 -36 99v1q-17 -4 -42 -4q-62 0 -98 33q-41 38 -41 112v427q0 74 41 112q37 34 98 34t98 -34q40 -37 40 -112v-427q0 -75 -40 -112q-15 -14 -34 -21v-9q0 -56 29 -82q26 -24 71 -24h14zM173 13q53 0 83 27q33 32 33 96v427
q0 65 -33 96q-31 28 -83 28q-53 0 -83 -28q-34 -31 -34 -96v-427q0 -65 34 -96q29 -27 83 -27z" />
    <glyph glyph-name="r" unicode="r" horiz-adv-x="343" 
d="M317 0h-23l-104 319h-11h-117v-319h-22v700h139q61 0 98 -34q41 -39 41 -113v-89q0 -74 -41 -112q-27 -24 -65 -30zM262 368q34 32 34 96v89q0 63 -34 97q-31 28 -83 28h-117v-337h117q53 0 83 27z" />
    <glyph glyph-name="s" unicode="s" horiz-adv-x="333" 
d="M265 25q41 38 41 112v50q0 81 -50 134q-18 19 -37 31t-46 25q-29 15 -46 25t-33 26q-44 46 -44 116v20q0 64 34 95q29 28 83 28t83 -28q34 -30 34 -95v-69h22v69q0 73 -41 112q-36 33 -98 33t-98 -33q-41 -39 -41 -112v-20q0 -79 50 -131q18 -19 37 -30.5t47 -24.5
q27 -13 44.5 -24t33.5 -28q44 -47 44 -119v-50q0 -65 -34 -96q-31 -28 -83 -28t-83 28q-34 32 -34 96v105h-22v-105q0 -74 41 -112q37 -34 98 -34t98 34z" />
    <glyph glyph-name="t" unicode="t" horiz-adv-x="303" 
d="M291 678h-127v-678h-22v678h-129v22h278v-22z" />
    <glyph glyph-name="u" unicode="u" horiz-adv-x="344" 
d="M270 25q41 38 41 112v563h-22v-563q0 -65 -34 -96q-30 -28 -83 -28q-52 0 -83 28q-34 32 -34 96v563h-22v-563q0 -74 41 -112q37 -34 98 -34t98 34z" />
    <glyph glyph-name="uacute" unicode="&#xfa;" horiz-adv-x="344" 
d="M270 25q41 38 41 112v563h-22v-563q0 -65 -34 -96q-30 -28 -83 -28q-52 0 -83 28q-34 32 -34 96v563h-22v-563q0 -74 41 -112q37 -34 98 -34t98 34zM182 737h-20l63 98h31z" />
    <glyph glyph-name="ucircumflex" unicode="&#xfb;" horiz-adv-x="344" 
d="M270 25q41 38 41 112v563h-22v-563q0 -65 -34 -96q-30 -28 -83 -28q-52 0 -83 28q-34 32 -34 96v563h-22v-563q0 -74 41 -112q37 -34 98 -34t98 34zM187 835l67 -98h-20l-61 77l-61 -77h-20l68 98h27z" />
    <glyph glyph-name="udieresis" unicode="&#xfc;" horiz-adv-x="344" 
d="M270 25q41 38 41 112v563h-22v-563q0 -65 -34 -96q-30 -28 -83 -28q-52 0 -83 28q-34 32 -34 96v563h-22v-563q0 -74 41 -112q37 -34 98 -34t98 34zM123.5 781.5q-7.5 7.5 -18.5 7.5t-18.5 -7.5t-7.5 -18.5q0 -10 8 -18t18 -8q11 0 18.5 7.5t7.5 18.5t-7.5 18.5z
M257.5 781.5q-7.5 7.5 -18.5 7.5t-18.5 -7.5t-7.5 -18.5q0 -10 8 -18t18 -8q11 0 18.5 7.5t7.5 18.5t-7.5 18.5z" />
    <glyph glyph-name="ugrave" unicode="&#xf9;" horiz-adv-x="344" 
d="M270 25q41 38 41 112v563h-22v-563q0 -65 -34 -96q-30 -28 -83 -28q-52 0 -83 28q-34 32 -34 96v563h-22v-563q0 -74 41 -112q37 -34 98 -34t98 34zM119 835l63 -98h-20l-74 98h31z" />
    <glyph glyph-name="v" unicode="v" horiz-adv-x="351" 
d="M164 0l-150 700h22l140 -651l139 651h22l-150 -700h-23z" />
    <glyph glyph-name="w" unicode="w" horiz-adv-x="497" 
d="M478 700l-86 -700h-12l-131 527l-132 -527h-12l-85 700h22l74 -616l127 505h12l126 -505l74 616h23z" />
    <glyph glyph-name="wacute" unicode="&#x1e83;" horiz-adv-x="497" 
d="M478 700l-86 -700h-12l-131 527l-132 -527h-12l-85 700h22l74 -616l127 505h12l126 -505l74 616h23zM259 737h-20l63 98h31z" />
    <glyph glyph-name="wcircumflex" unicode="&#x175;" horiz-adv-x="497" 
d="M478 700l-86 -700h-12l-131 527l-132 -527h-12l-85 700h22l74 -616l127 505h12l126 -505l74 616h23zM263 835l67 -98h-20l-61 77l-61 -77h-20l68 98h27z" />
    <glyph glyph-name="wdieresis" unicode="&#x1e85;" horiz-adv-x="497" 
d="M478 700l-86 -700h-12l-131 527l-132 -527h-12l-85 700h22l74 -616l127 505h12l126 -505l74 616h23zM200.5 781.5q-7.5 7.5 -18.5 7.5t-18.5 -7.5t-7.5 -18.5q0 -10 8 -18t18 -8q11 0 18.5 7.5t7.5 18.5t-7.5 18.5zM334.5 781.5q-7.5 7.5 -18.5 7.5t-18.5 -7.5
t-7.5 -18.5q0 -10 8 -18t18 -8q11 0 18.5 7.5t7.5 18.5t-7.5 18.5z" />
    <glyph glyph-name="wgrave" unicode="&#x1e81;" horiz-adv-x="497" 
d="M478 700l-86 -700h-12l-131 527l-132 -527h-12l-85 700h22l74 -616l127 505h12l126 -505l74 616h23zM196 835l63 -98h-20l-74 98h31z" />
    <glyph glyph-name="x" unicode="x" horiz-adv-x="360" 
d="M44 0h-23l143 349l-149 351h24l141 -334l142 334h24l-149 -351l143 -349h-23l-137 332z" />
    <glyph glyph-name="y" unicode="y" 
d="M314 700h23l-153 -463v-237h-22v237l-153 463h23l141 -426z" />
    <glyph glyph-name="yacute" unicode="&#xfd;" 
d="M314 700h23l-153 -463v-237h-22v237l-153 463h23l141 -426zM183 737h-20l63 98h31z" />
    <glyph glyph-name="ycircumflex" unicode="&#x177;" 
d="M314 700h23l-153 -463v-237h-22v237l-153 463h23l141 -426zM187 835l67 -98h-20l-61 77l-61 -77h-20l68 98h27z" />
    <glyph glyph-name="ydieresis" unicode="&#xff;" 
d="M314 700h23l-153 -463v-237h-22v237l-153 463h23l141 -426zM128.5 781.5q-7.5 7.5 -18.5 7.5t-18.5 -7.5t-7.5 -18.5q0 -10 8 -18t18 -8q11 0 18.5 7.5t7.5 18.5t-7.5 18.5zM262.5 781.5q-7.5 7.5 -18.5 7.5t-18.5 -7.5t-7.5 -18.5q0 -10 8 -18t18 -8q11 0 18.5 7.5
t7.5 18.5t-7.5 18.5z" />
    <glyph glyph-name="ygrave" unicode="&#x1ef3;" 
d="M314 700h23l-153 -463v-237h-22v237l-153 463h23l141 -426zM120 835l63 -98h-20l-74 98h31z" />
    <glyph glyph-name="z" unicode="z" horiz-adv-x="318" 
d="M298 22h-247l246 678h-277v-22h246l-246 -678h278v22z" />
    <glyph glyph-name="zero" unicode="0" horiz-adv-x="358" 
d="M277 24q41 39 41 113v426q0 74 -41 112q-37 34 -98 34t-98 -34q-41 -38 -41 -112v-426q0 -74 41 -113q38 -33 98 -33t98 33zM262 659q34 -32 34 -96v-426q0 -65 -34 -96q-29 -28 -83 -28q-55 0 -83 28q-34 30 -34 96v426q0 65 34 96q30 28 83 28q52 0 83 -28z" />
    <glyph glyph-name="one" unicode="1" horiz-adv-x="212" 
d="M150 700h12v-700h-22v661l-110 -101v30z" />
    <glyph glyph-name="two" unicode="2" 
d="M38 0v171q0 79 50 134q18 19 37 31t46 25q29 14 45.5 24.5t32.5 26.5q44 44 44 116v35q0 65 -34 96q-30 28 -82 28q-53 0 -83 -28q-34 -31 -34 -96v-70h-22v70q0 74 41 112q36 34 98 34q61 0 97 -34q41 -37 41 -112v-35q0 -79 -50 -131q-18 -19 -37 -31t-46 -24
q-26 -13 -44 -24t-34 -28q-44 -47 -44 -119v-149h255v-22h-277z" />
    <glyph glyph-name="three" unicode="3" horiz-adv-x="343" 
d="M270 25q41 38 41 112v50q0 49 -17 85t-41 59q-26 23 -57 37q45 19 80 61t35 115v20q0 73 -41 112q-36 33 -98 33t-98 -33q-40 -39 -40 -112v-20h22v20q0 65 33 95q29 28 83 28q55 0 83 -28q34 -30 34 -95v-20q0 -78 -52 -124q-30 -28 -68 -38q-14 -4 -26 -4v-22
q9 0 27 -2q11 -2 30.5 -12t37.5 -27q51 -48 51 -128v-50q0 -65 -34 -96q-30 -28 -83 -28q-52 0 -83 28q-33 32 -33 96v50h-22v-50q0 -75 40 -112q37 -34 98 -34t98 34z" />
    <glyph glyph-name="four" unicode="4" horiz-adv-x="385" 
d="M355 146v-22h-75v-124h-22v124h-228v12l228 564h22v-554h75zM258 643l-201 -497h201v497z" />
    <glyph glyph-name="five" unicode="5" horiz-adv-x="343" 
d="M34 700v-149q0 -81 50 -134q18 -19 37 -30.5t46 -25.5q29 -14 45.5 -24.5t32.5 -26.5q44 -46 44 -116v-57q0 -65 -34 -96q-30 -28 -83 -28q-52 0 -83 28q-33 32 -33 96v69h-22v-69q0 -75 40 -112q37 -34 98 -34t98 34q41 38 41 112v57q0 79 -50 132q-18 19 -37 30.5
t-46 23.5q-26 13 -44 24t-34 28q-44 47 -44 119v127h255v22h-277z" />
    <glyph glyph-name="six" unicode="6" 
d="M292 503v60q0 64 -34 96q-31 28 -83 28t-83 -28q-34 -32 -34 -96v-238q12 16 19 22q37 34 98 34t98 -34q41 -38 41 -112v-98q0 -74 -41 -113q-36 -33 -98 -33t-98 33q-41 39 -41 113v98v328q0 74 41 112q37 34 98 34t98 -34q41 -38 41 -112v-60h-22zM58 235v-98
q0 -65 34 -96q29 -28 83 -28t83 28q34 31 34 96v98q0 64 -34 96q-31 28 -83 28t-83 -28q-34 -32 -34 -96z" />
    <glyph glyph-name="seven" unicode="7" horiz-adv-x="332" 
d="M94 0h-24l221 678h-276v22h307z" />
    <glyph glyph-name="eight" unicode="8" horiz-adv-x="341" 
d="M268 25q41 38 41 112v50q0 81 -50 134q-26 27 -64 46q38 19 64 46q50 52 50 131v20q0 73 -41 112q-35 33 -98 33q-62 0 -97 -33q-41 -39 -41 -112v-20q0 -79 50 -131q26 -27 64 -46q-38 -19 -64 -46q-50 -53 -50 -134v-50q0 -74 41 -112q36 -34 97 -34q62 0 98 34z
M174 353q44 -20 69 -47q44 -47 44 -119v-50q0 -65 -34 -96q-30 -28 -83 -28q-52 0 -82 28q-34 31 -34 96v50q0 72 44 119q25 27 69 47l3 2zM253 659q34 -30 34 -95v-20q0 -70 -44 -116q-16 -16 -31.5 -25.5t-36.5 -20.5q-4 -2 -5 -2l-4 2q-21 11 -36.5 20.5t-31.5 25.5
q-44 46 -44 116v20q0 65 34 95q28 28 82 28q55 0 83 -28z" />
    <glyph glyph-name="nine" unicode="9" horiz-adv-x="345" 
d="M309 466v-329q0 -75 -41 -112q-36 -34 -97 -34q-62 0 -98 34q-41 38 -41 112v62h22v-62q0 -65 34 -96q30 -28 83 -28q52 0 82 28q34 31 34 96v240q-8 -15 -19 -23q-36 -34 -97 -34q-62 0 -98 34q-41 38 -41 112v98q0 73 41 112q35 33 98 33q62 0 97 -33q41 -38 41 -112
v-98zM287 466v98q0 65 -34 95q-28 28 -82 28q-55 0 -83 -28q-34 -30 -34 -95v-98q0 -65 34 -96q30 -28 83 -28q52 0 82 28q34 31 34 96z" />
    <glyph glyph-name="asterisk" unicode="*" horiz-adv-x="376" 
d="M215 539l126 -81l-22 -30l-116 94l-38 -144l-35 11l54 140l-149 -8v37l149 -9l-54 140l35 11l38 -144l116 94l22 -30z" />
    <glyph glyph-name="backslash" unicode="\" horiz-adv-x="248" 
d="M243 0l-215 700h-23l215 -700h23z" />
    <glyph glyph-name="periodcentered" unicode="&#xb7;" horiz-adv-x="132" 
d="M84.5 376.5q-7.5 7.5 -18.5 7.5q-10 0 -18 -7.5t-8 -18.5q0 -10 8 -18t18 -8q11 0 18.5 8t7.5 18q0 11 -7.5 18.5z" />
    <glyph glyph-name="bullet" unicode="&#x2022;" horiz-adv-x="190" 
d="M63 393q-13 -13 -13 -32t13 -32t32 -13t32 13t13 32t-13 32t-32 13t-32 -13z" />
    <glyph glyph-name="colon" unicode=":" horiz-adv-x="124" 
d="M81.5 42.5q-7.5 7.5 -18.5 7.5q-10 0 -18 -7.5t-8 -18.5q0 -10 8 -18t18 -8q11 0 18.5 8t7.5 18q0 11 -7.5 18.5zM81.5 434.5q-7.5 7.5 -18.5 7.5q-10 0 -18 -7.5t-8 -18.5q0 -10 8 -18t18 -8q11 0 18.5 8t7.5 18q0 11 -7.5 18.5z" />
    <glyph glyph-name="comma" unicode="," horiz-adv-x="122" 
d="M79.5 42.5q7.5 -7.5 7.5 -18.5q0 -10 -7 -24q-5 -10 -14.5 -24t-12.5 -18h-15l11 28q2 4 2 7q0 5 -4 9q-12 9 -12 22q0 11 8 18.5t18 7.5q11 0 18.5 -7.5z" />
    <glyph glyph-name="ellipsis" unicode="&#x2026;" horiz-adv-x="324" 
d="M80.5 42.5q-7.5 7.5 -18.5 7.5q-10 0 -18 -7.5t-8 -18.5q0 -10 8 -18t18 -8q11 0 18.5 8t7.5 18q0 11 -7.5 18.5zM180.5 42.5q-7.5 7.5 -18.5 7.5q-10 0 -18 -7.5t-8 -18.5q0 -10 8 -18t18 -8q11 0 18.5 8t7.5 18q0 11 -7.5 18.5zM280.5 42.5q-7.5 7.5 -18.5 7.5
q-10 0 -18 -7.5t-8 -18.5q0 -10 8 -18t18 -8q11 0 18.5 8t7.5 18q0 11 -7.5 18.5z" />
    <glyph glyph-name="exclam" unicode="!" horiz-adv-x="135" 
d="M86.5 46.5q-8.5 8.5 -19.5 8.5t-19 -8.5t-8 -19.5t8 -19t19 -8t19.5 8t8.5 19t-8.5 19.5zM78 349v351h-22v-351l4 -217h15z" />
    <glyph glyph-name="exclamdown" unicode="&#xa1;" horiz-adv-x="135" 
d="M86.5 692q-8.5 8 -19.5 8t-19 -8t-8 -19t8 -19.5t19 -8.5t19.5 8.5t8.5 19.5t-8.5 19zM60 568l-4 -217v-351h22v351l-3 217h-15z" />
    <glyph glyph-name="numbersign" unicode="#" horiz-adv-x="675" 
d="M502 466l-72 -235h176v-22h-183l-65 -209h-23l65 209h-211l-65 -209h-23l65 209h-126v22h133l72 235h-175v22h181l66 212h23l-65 -212h211l65 212h23l-65 -212h126v-22h-133zM479 466h-211l-72 -235h211z" />
    <glyph glyph-name="period" unicode="." horiz-adv-x="120" 
d="M78.5 42.5q-7.5 7.5 -18.5 7.5q-10 0 -18 -7.5t-8 -18.5q0 -10 8 -18t18 -8q11 0 18.5 8t7.5 18q0 11 -7.5 18.5z" />
    <glyph glyph-name="question" unicode="?" horiz-adv-x="338" 
d="M120.5 29.5q-4.5 4.5 -12.5 4.5q-7 0 -12 -5t-5 -12t5 -12t12 -5t12 5t5 12q0 8 -4.5 12.5zM127 46.5q-8 8.5 -19 8.5q-12 0 -20 -8.5t-8 -19.5t8 -19t20 -8q11 0 19 8t8 19t-8 19.5zM98 135v36q0 55 13.5 90.5t32.5 55t51 42.5q31 22 48.5 40t30 49t12.5 80v35
q0 64 -34 96q-31 28 -83 28t-83 -28q-34 -32 -34 -96v-70h-22v70q0 74 41 112q37 34 98 34t98 -34q41 -38 41 -112v-35q0 -54 -13 -88.5t-32 -53.5t-51 -42q-31 -23 -49 -41t-30.5 -50t-12.5 -82v-36h-22z" />
    <glyph glyph-name="questiondown" unicode="&#xbf;" horiz-adv-x="339" 
d="M219 671q5 -5 12 -5t12 5t5 12t-5 12t-12 5t-12 -5t-5 -12t5 -12zM212 653.5q8 -8.5 19 -8.5q12 0 20 8.5t8 19.5t-8 19t-20 8q-11 0 -19 -8t-8 -19t8 -19.5zM241 565v-36q0 -56 -13.5 -91t-33 -55t-51.5 -42q-31 -22 -48.5 -40t-30 -49t-12.5 -80v-35q0 -64 34 -96
q33 -28 84 -28q52 0 83 28q34 32 34 96v70h22v-70q0 -74 -41 -112q-37 -34 -98 -34q-60 0 -99 34q-41 38 -41 112v35q0 54 13 88.5t32 53.5t51 42t50 41t30.5 50t12.5 82v36h22z" />
    <glyph glyph-name="quotedbl" unicode="&#x22;" horiz-adv-x="145" 
d="M57 700h-22l5 -96h12zM110 700h-22l5 -96h12z" />
    <glyph glyph-name="quotesingle" unicode="'" horiz-adv-x="92" 
d="M57 700h-22l5 -96h12z" />
    <glyph glyph-name="semicolon" unicode=";" horiz-adv-x="115" 
d="M79.5 42.5q7.5 -7.5 7.5 -18.5q0 -10 -7 -24q-5 -10 -14.5 -24t-12.5 -18h-15l11 28q2 4 2 7q0 5 -4 9q-12 9 -12 22q0 11 8 18.5t18 7.5q11 0 18.5 -7.5zM79.5 434.5q-7.5 7.5 -18.5 7.5q-10 0 -18 -7.5t-8 -18.5q0 -10 8 -18t18 -8q11 0 18.5 8t7.5 18q0 11 -7.5 18.5z
" />
    <glyph glyph-name="slash" unicode="/" horiz-adv-x="248" 
d="M243 700h-23l-215 -700h23z" />
    <glyph glyph-name="underscore" unicode="_" horiz-adv-x="354" 
d="M344 22h-334v-22h334v22z" />
    <glyph glyph-name="braceleft" unicode="{" horiz-adv-x="272" 
d="M242 13q-54 0 -83 27q-34 31 -34 96v61q0 50 -21 88t-53 65q74 62 74 153v60q0 66 34 96q28 28 83 28v22q-63 0 -98 -33q-41 -38 -41 -113v-60q0 -87 -77 -144l-12 -9l12 -9q77 -57 77 -144v-61q0 -75 41 -112q35 -33 98 -33v22z" />
    <glyph glyph-name="braceright" unicode="}" horiz-adv-x="272" 
d="M128 24q41 37 41 112v61q0 87 77 144l12 9l-12 9q-77 57 -77 144v60q0 75 -41 113q-35 33 -98 33v-22q55 0 83 -28q34 -30 34 -96v-60q0 -91 74 -153q-32 -27 -53 -65t-21 -88v-61q0 -65 -34 -96q-28 -27 -83 -27v-22q64 0 98 33z" />
    <glyph glyph-name="bracketleft" unicode="[" horiz-adv-x="209" 
d="M179 22h-117v656h117v22h-139v-700h139v22z" />
    <glyph glyph-name="bracketright" unicode="]" horiz-adv-x="209" 
d="M169 0v700h-139v-22h117v-656h-117v-22h139z" />
    <glyph glyph-name="parenleft" unicode="(" horiz-adv-x="210" 
d="M180 13q-53 0 -83 27q-34 31 -34 96v428q0 65 34 96q30 27 83 27v22q-62 0 -98 -33q-41 -39 -41 -112v-428q0 -74 41 -112q36 -33 98 -33v22z" />
    <glyph glyph-name="parenright" unicode=")" horiz-adv-x="210" 
d="M128 24q41 38 41 112v428q0 73 -41 112q-36 33 -98 33v-22q53 0 83 -27q34 -31 34 -96v-428q0 -65 -34 -96q-30 -27 -83 -27v-22q62 0 98 33z" />
    <glyph glyph-name="emdash" unicode="&#x2014;" horiz-adv-x="354" 
d="M344 370h-334v-22h334v22z" />
    <glyph glyph-name="endash" unicode="&#x2013;" horiz-adv-x="354" 
d="M344 370h-334v-22h334v22z" />
    <glyph glyph-name="figuredash" unicode="&#x2012;" horiz-adv-x="233" 
d="M223 370h-213v-22h213v22z" />
    <glyph glyph-name="hyphen" unicode="-" horiz-adv-x="169" 
d="M159 370h-149v-22h149v22z" />
    <glyph glyph-name="guillemotleft" unicode="&#xab;" horiz-adv-x="295" 
d="M164 626h25l-148 -267l148 -267h-25l-148 267zM254 626h25l-148 -267l148 -267h-25l-148 267z" />
    <glyph glyph-name="guillemotright" unicode="&#xbb;" horiz-adv-x="295" 
d="M131 92h-25l148 267l-148 267h25l148 -267zM41 92h-25l148 267l-148 267h25l148 -267z" />
    <glyph glyph-name="guilsinglleft" unicode="&#x2039;" horiz-adv-x="205" 
d="M164 626h25l-148 -267l148 -267h-25l-148 267z" />
    <glyph glyph-name="guilsinglright" unicode="&#x203a;" horiz-adv-x="206" 
d="M41 92h-25l149 267l-149 267h26l148 -267z" />
    <glyph glyph-name="quotedblbase" unicode="&#x201e;" horiz-adv-x="175" 
d="M83.5 42.5q7.5 -7.5 7.5 -18.5q0 -10 -7 -24q-5 -10 -14.5 -24t-12.5 -18h-15l11 28q2 4 2 7q0 5 -4 9q-12 9 -12 22q0 11 8 18.5t18 7.5q11 0 18.5 -7.5zM163.5 42.5q7.5 -7.5 7.5 -18.5q0 -10 -7 -24q-5 -10 -14.5 -24t-12.5 -18h-15l11 28q2 4 2 7q0 5 -4 9
q-12 9 -12 22q0 11 8 18.5t18 7.5q11 0 18.5 -7.5z" />
    <glyph glyph-name="quotedblleft" unicode="&#x201c;" horiz-adv-x="202" 
d="M123 616q-8 8 -8 18t7 24q5 10 14.5 24t12.5 18h15l-11 -28q-2 -4 -2 -7q0 -5 4 -9q12 -9 12 -22q0 -10 -7.5 -18t-18.5 -8q-10 0 -18 8zM43 616q-8 8 -8 18t7 24q5 10 14.5 24t12.5 18h15l-11 -28q-2 -4 -2 -7q0 -5 4 -9q12 -9 12 -22q0 -10 -7.5 -18t-18.5 -8
q-10 0 -18 8z" />
    <glyph glyph-name="quotedblright" unicode="&#x201d;" horiz-adv-x="202" 
d="M79.5 694.5q7.5 -7.5 7.5 -18.5q0 -10 -7 -24q-5 -10 -14.5 -24t-12.5 -18h-15l11 28q2 4 2 7q0 5 -4 9q-12 9 -12 22q0 11 8 18.5t18 7.5q11 0 18.5 -7.5zM159.5 694.5q7.5 -7.5 7.5 -18.5q0 -10 -7 -24q-5 -10 -14.5 -24t-12.5 -18h-15l11 28q2 4 2 7q0 5 -4 9
q-12 9 -12 22q0 11 8 18.5t18 7.5q11 0 18.5 -7.5z" />
    <glyph glyph-name="quoteleft" unicode="&#x2018;" horiz-adv-x="122" 
d="M43 616q-8 8 -8 18t7 24q5 10 14.5 24t12.5 18h15l-11 -28q-2 -4 -2 -7q0 -5 4 -9q12 -9 12 -22q0 -10 -7.5 -18t-18.5 -8q-10 0 -18 8z" />
    <glyph glyph-name="quoteright" unicode="&#x2019;" horiz-adv-x="122" 
d="M79.5 694.5q7.5 -7.5 7.5 -18.5q0 -10 -7 -24q-5 -10 -14.5 -24t-12.5 -18h-15l11 28q2 4 2 7q0 5 -4 9q-12 9 -12 22q0 11 8 18.5t18 7.5q11 0 18.5 -7.5z" />
    <glyph glyph-name="quotesinglbase" unicode="&#x201a;" horiz-adv-x="122" 
d="M79.5 42.5q7.5 -7.5 7.5 -18.5q0 -10 -7 -24q-5 -10 -14.5 -24t-12.5 -18h-15l11 28q2 4 2 7q0 5 -4 9q-12 9 -12 22q0 11 8 18.5t18 7.5q11 0 18.5 -7.5z" />
    <glyph glyph-name="uni00A0" unicode="&#xa0;" horiz-adv-x="600" 
 />
    <glyph glyph-name="Euro" unicode="&#x20ac;" horiz-adv-x="426" 
d="M401 2q-34 -15 -73 -15q-84 0 -135 62q-58 72 -58 207v7h-107v22h107v134h-107v22h107q0 135 58 207q51 63 135 63q35 0 63 -11l-8 -20q-25 9 -55 9q-73 0 -118 -54q-53 -67 -53 -194h207v-22h-207v-134h207v-22h-207v-7q0 -128 53 -193q45 -54 118 -54q35 0 64 13z" />
    <glyph glyph-name="cent" unicode="&#xa2;" horiz-adv-x="355" 
d="M296 492v61q0 65 -34 96q-30 28 -82 28q-53 0 -83 -28q-34 -31 -34 -96v-406q0 -65 34 -96q30 -28 83 -28q52 0 82 28q34 31 34 96v92h22v-92q0 -74 -41 -112q-32 -31 -86 -34v-29h-22v29q-54 3 -87 34q-41 38 -41 112v406q0 74 41 112q33 31 87 34v29h22v-29
q54 -3 86 -34q41 -38 41 -112v-61h-22z" />
    <glyph glyph-name="currency" unicode="&#xa4;" horiz-adv-x="342" 
d="M269 189l-17 -13l30 -77l-20 -8l-30 75q-28 -11 -61 -11t-61 11l-30 -75l-20 8l30 77q-12 8 -17 13q-41 38 -41 112v98q0 74 41 112q5 5 17 13l-30 77l20 8l30 -75q28 11 61 11t61 -11l30 75l20 -8l-30 -77l17 -13q41 -38 41 -112v-98q0 -74 -41 -112zM288 301v98
q0 64 -34 96q-31 28 -83 28t-83 -28q-34 -32 -34 -96v-98q0 -64 34 -96q31 -28 83 -28t83 28q34 32 34 96z" />
    <glyph glyph-name="dollar" unicode="$" horiz-adv-x="345" 
d="M289 493v60q0 65 -34 96q-30 28 -82 28q-53 0 -83 -28q-34 -31 -34 -96v-10q0 -70 44 -116q16 -17 34 -28t44 -23q27 -13 46 -25.5t37 -31.5q50 -53 50 -133v-39q0 -75 -41 -112q-32 -31 -86 -34v-29h-22v29q-54 3 -87 34q-41 38 -41 112v93h22v-93q0 -65 34 -96
q30 -28 83 -28q52 0 82 28q34 31 34 96v39q0 73 -44 118q-16 17 -34.5 29t-43.5 23q-29 15 -47 26t-36 29q-50 53 -50 132v10q0 74 41 112q33 31 87 34v29h22v-29q54 -3 86 -34q41 -37 41 -112v-60h-22z" />
    <glyph glyph-name="sterling" unicode="&#xa3;" horiz-adv-x="436" 
d="M403 22h-278q36 18 60.5 55.5t24.5 99.5v25v33q0 60 -10 86h139v22h-155q-19 18 -28 58q-9 38 -9 101v61q0 64 34 96q31 28 83 28q53 0 83 -28q34 -31 34 -96v-21h22v21q0 74 -41 112q-37 34 -98 34t-98 -34q-41 -38 -41 -112v-61q0 -65 9 -106q7 -31 21 -53h-100v-22
h120q8 -11 10.5 -32.5t2.5 -54.5v-32v-25q0 -98 -73 -135q-16 -9 -33 -13.5t-28 -5.5t-14 -1h-9v-22h372v22z" />
    <glyph glyph-name="uni20B9" unicode="&#x20b9;" horiz-adv-x="370" 
d="M304 0h-28l-250 342h139q54 0 83 28q34 31 34 96v14h-256v22h256v51q0 65 -34 97q-31 28 -83 28h-139v22h139h185v-22h-103l16 -12q41 -39 41 -113v-51h46v-22h-46v-14q0 -74 -41 -113q-36 -33 -98 -33h-95z" />
    <glyph glyph-name="yen" unicode="&#xa5;" horiz-adv-x="348" 
d="M185 226v-48h156v-22h-156v-156h-22v156h-156v22h156v48h-156v22h152l-149 452h23l141 -426l141 426h23l-149 -452h152v-22h-156z" />
    <glyph glyph-name="plus" unicode="+" horiz-adv-x="438" 
d="M403 370h-368v-22h368v22zM230 543h-22v-368h22v368z" />
    <glyph glyph-name="minus" unicode="&#x2212;" horiz-adv-x="404" 
d="M369 370h-334v-22h334v22z" />
    <glyph glyph-name="multiply" unicode="&#xd7;" 
d="M311 236l-260 261l-16 -16l261 -260zM311 481l-15 16l-261 -261l16 -15z" />
    <glyph glyph-name="divide" unicode="&#xf7;" horiz-adv-x="404" 
d="M369 370h-334v-22h334v22zM369 370h-334v-22h334v22zM221 489.5q-8 8.5 -19 8.5t-19 -8.5t-8 -19.5t8 -19t19 -8t19 8t8 19t-8 19.5zM221 266.5q-8 8.5 -19 8.5t-19 -8.5t-8 -19.5t8 -19t19 -8t19 8t8 19t-8 19.5z" />
    <glyph glyph-name="equal" unicode="=" horiz-adv-x="438" 
d="M403 465h-368v-22h368v22zM403 274h-368v-22h368v22z" />
    <glyph glyph-name="greater" unicode="&#x3e;" horiz-adv-x="396" 
d="M40 492v24l326 -146v-22l-326 -145v24l297 132z" />
    <glyph glyph-name="less" unicode="&#x3c;" horiz-adv-x="396" 
d="M356 227v-24l-326 145v22l326 146v-24l-297 -133z" />
    <glyph glyph-name="percent" unicode="%" horiz-adv-x="543" 
d="M485 37.5q24 27.5 24 66.5v10q0 39 -24 67t-58 28t-58.5 -28t-24.5 -67v-10q0 -39 24.5 -66.5t58.5 -27.5t58 27.5zM469.5 165.5q17.5 -21.5 17.5 -51.5v-10q0 -30 -17.5 -51t-42.5 -21t-43 21t-18 51v10q0 30 18 51.5t43 21.5t42.5 -21.5zM175 520.5q24 27.5 24 67.5v9
q0 39 -24 67t-58 28t-58.5 -28t-24.5 -67v-9q0 -40 24 -67.5t59 -27.5q34 0 58 27.5zM159.5 648.5q17.5 -21.5 17.5 -51.5v-9q0 -31 -17.5 -52t-42.5 -21q-26 0 -43.5 21t-17.5 52v9q0 30 18 51.5t43 21.5t42.5 -21.5zM391 700l-215 -700h-23l215 700h23z" />
    <glyph glyph-name="perthousand" unicode="&#x2030;" horiz-adv-x="738" 
d="M485 37.5q24 27.5 24 66.5v10q0 39 -24 67t-58 28t-58.5 -28t-24.5 -67v-10q0 -39 24.5 -66.5t58.5 -27.5t58 27.5zM469.5 165.5q17.5 -21.5 17.5 -51.5v-10q0 -30 -17.5 -51t-42.5 -21t-43 21t-18 51v10q0 30 18 51.5t43 21.5t42.5 -21.5zM175 520.5q24 27.5 24 67.5v9
q0 39 -24 67t-58 28t-58.5 -28t-24.5 -67v-9q0 -40 24 -67.5t59 -27.5q34 0 58 27.5zM159.5 648.5q17.5 -21.5 17.5 -51.5v-9q0 -31 -17.5 -52t-42.5 -21q-26 0 -43.5 21t-17.5 52v9q0 30 18 51.5t43 21.5t42.5 -21.5zM391 700l-215 -700h-23l215 700h23zM680 37.5
q24 27.5 24 66.5v10q0 39 -24 67t-58 28t-58.5 -28t-24.5 -67v-10q0 -39 24.5 -66.5t58.5 -27.5t58 27.5zM664.5 165.5q17.5 -21.5 17.5 -51.5v-10q0 -30 -17.5 -51t-42.5 -21t-43 21t-18 51v10q0 30 18 51.5t43 21.5t42.5 -21.5z" />
    <glyph glyph-name="at" unicode="@" horiz-adv-x="588" 
d="M506 120l27 6q-20 -46 -56 -76q-34 -31 -80.5 -46.5t-102.5 -15.5q-113 0 -183 62q-39 33 -59 84q-22 53 -22 124v184q0 73 22 124q19 50 59 85q71 62 183 62q55 0 102 -16t81 -46q40 -35 59 -85q22 -51 22 -124v-106q0 -73 -26 -111q-26 -35 -66 -35q-42 0 -66 35
q-9 11 -16 31q-8 -16 -19 -27q-26 -26 -71 -26t-71 26q-30 30 -30 85v71q0 56 30 86q27 25 71 25t71 -25l8 -9v26h22v-153q0 -58 18.5 -90.5t52.5 -32.5q33 0 51.5 32.5t18.5 91.5v106q0 128 -73 192q-65 57 -169 57t-169 -57q-73 -65 -73 -192v-184q0 -127 73 -192
q64 -56 169 -56t169 56q24 22 43 54zM373 385q0 50 -23 69.5t-56 19.5t-56 -19.5t-23 -69.5v-71q0 -49 23 -69t56 -20t56 20t23 69v71z" />
    <glyph glyph-name="ampersand" unicode="&#x26;" horiz-adv-x="593" 
d="M563 2q-55 20 -141 101q30 42 64 94.5t45 71.5l-19 11l-35.5 -56t-70.5 -106q-58 58 -110 123q-48 58 -86 120q11 6 23 9l19 8q49 23 83 57q51 54 51 131v19q0 72 -57 103q-19 11 -41 16.5t-40 5.5q-19 0 -41 -5.5t-41 -16.5q-28 -16 -42.5 -42.5t-14.5 -60.5v-24
q0 -61 50 -156q16 -29 19 -34q-43 -23 -66 -41q-72 -57 -72 -141q0 -93 61 -148q28 -24 66 -37t81 -13q39 0 72 16q35 17 65 48l24 30l15 -14q77 -70 132 -90zM278 227q56 -69 115 -127l-24 -30q-54 -57 -121 -57q-40 0 -74 11.5t-58 33.5q-54 47 -54 131q0 103 127 163
q39 -61 89 -125zM279.5 684q19.5 -4 38.5 -15q46 -25 46 -84v-19q0 -68 -45 -116q-29 -29 -76 -52l-18 -7l-27 -11l-20 35q-47 89 -47 146v24q0 59 46 84q20 12 39.5 15.5t31.5 3.5t31.5 -4z" />
    <glyph glyph-name="paragraph" unicode="&#xb6;" horiz-adv-x="332" 
d="M292 700v-700h-22v678h-22v-678h-22v319h-73q-62 0 -98 33q-41 38 -41 112v89q0 74 41 113q37 34 98 34h139z" />
    <glyph glyph-name="section" unicode="&#xa7;" horiz-adv-x="348" 
d="M290 543v41q0 49 -32 76t-84 27q-51 0 -84 -26.5t-33 -76.5q0 -45 28.5 -76.5t93.5 -52.5q71 -23 102 -56t31 -85q0 -54 -33.5 -87t-87.5 -38q63 -23 92 -58.5t29 -86.5q0 -58 -38.5 -92t-99.5 -34q-59 0 -99 33.5t-40 92.5v35h22v-35q0 -48 33 -76t84 -28q50 0 83 27
t33 77q0 46 -28 77t-94 53q-72 24 -102.5 56t-30.5 84q0 55 35 88t91 37q-67 23 -96.5 58t-29.5 87q0 58 39 91.5t100 33.5q60 0 99 -33t39 -92v-41h-22zM257 237q33 27 33 77q0 49 -32 76t-84 27q-51 0 -84 -26.5t-33 -76.5q0 -48 33 -76t84 -28q50 0 83 27z" />
    <glyph glyph-name="copyright" unicode="&#xa9;" horiz-adv-x="728" 
d="M503 436v-20h-22v20q0 65 -34 96q-30 28 -83 28q-52 0 -82 -28q-34 -31 -34 -96v-174q0 -65 34 -96q30 -28 82 -28q53 0 83 28q34 31 34 96v20h22v-20q0 -74 -41 -112q-36 -34 -98 -34q-61 0 -97 34q-41 37 -41 112v174q0 75 41 112q36 34 97 34q62 0 98 -34
q41 -38 41 -112zM539.5 661.5q78.5 -46.5 123.5 -128.5t45 -184t-45 -184t-123.5 -128t-175.5 -46t-175.5 46t-123.5 128t-45 184t45 184t123.5 128.5t175.5 46.5t175.5 -46.5zM527.5 58q73.5 43 115 119.5t41.5 171.5q0 96 -41.5 172t-115 119.5t-163.5 43.5t-163.5 -43.5
t-115 -119.5t-41.5 -172q0 -95 41.5 -171.5t115 -119.5t163.5 -43t163.5 43z" />
    <glyph glyph-name="registered" unicode="&#xae;" horiz-adv-x="728" 
d="M539.5 661.5q78.5 -46.5 123.5 -128.5t45 -184t-45 -184t-123.5 -128t-175.5 -46t-175.5 46t-123.5 128t-45 184t45 184t123.5 128.5t175.5 46.5t175.5 -46.5zM527.5 58q73.5 43 115 119.5t41.5 171.5q0 96 -41.5 172t-115 119.5t-163.5 43.5t-163.5 -43.5t-115 -119.5
t-41.5 -172q0 -95 41.5 -171.5t115 -119.5t163.5 -43t163.5 43zM524 149h-25l-110 170h-7h-117v-170h-22v404h139q45 0 77 -17t49 -44.5t17 -58.5q0 -40 -28.5 -71.5t-81.5 -39.5zM469.5 367.5q30.5 26.5 30.5 64.5q0 40 -31.5 69.5t-86.5 29.5h-117v-190h117
q57 0 87.5 26.5z" />
    <glyph glyph-name="uni2117" unicode="&#x2117;" horiz-adv-x="728" 
d="M539.5 661.5q78.5 -46.5 123.5 -128.5t45 -184t-45 -184t-123.5 -128t-175.5 -46t-175.5 46t-123.5 128t-45 184t45 184t123.5 128.5t175.5 46.5t175.5 -46.5zM527.5 58q73.5 43 115 119.5t41.5 171.5q0 96 -41.5 172t-115 119.5t-163.5 43.5t-163.5 -43.5t-115 -119.5
t-41.5 -172q0 -95 41.5 -171.5t115 -119.5t163.5 -43t163.5 43zM265 301h116q50 0 85.5 18t53.5 46.5t18 61.5t-18 61.5t-53.5 46.5t-85.5 18h-138v-404h22v152zM265 531h116q64 0 99.5 -31t35.5 -73t-35.5 -73t-99.5 -31h-116v208z" />
    <glyph glyph-name="bar" unicode="|" horiz-adv-x="422" 
d="M222 760h-22v-820h22v820z" />
    <glyph glyph-name="brokenbar" unicode="&#xa6;" horiz-adv-x="422" 
d="M200 274h22v-334h-22v334zM222 444h-22v316h22v-316z" />
    <glyph glyph-name="asciicircum" unicode="^" horiz-adv-x="353" 
d="M44 374h-24l145 326h22l146 -326h-24l-133 297z" />
    <glyph glyph-name="ampersand.001" horiz-adv-x="600" 
 />
    <glyph glyph-name="uni0326" unicode="&#x326;" horiz-adv-x="0" 
 />
    <glyph glyph-name="acute" unicode="&#xb4;" horiz-adv-x="114" 
d="M30 737h-20l63 98h31z" />
    <glyph glyph-name="breve" unicode="&#x2d8;" horiz-adv-x="202" 
d="M192 828q0 -37 -26.5 -64t-64.5 -27q-37 0 -64 27t-27 64h22q0 -28 20.5 -48.5t48.5 -20.5q29 0 49 20.5t20 48.5h22z" />
    <glyph glyph-name="caron" unicode="&#x2c7;" horiz-adv-x="182" 
d="M10 835h20l61 -77l61 77h20l-67 -98h-27z" />
    <glyph glyph-name="cedilla" unicode="&#xb8;" horiz-adv-x="126" 
d="M100.5 -112.5q15.5 15.5 15.5 37.5q0 18 -8 29t-21 19l-2 2q-11 8 -11 21v4h-22v-4q0 -24 20 -39l2 -1q10 -7 15 -13.5t5 -17.5q0 -13 -9 -22t-22 -9t-22 9t-9 22h-22q0 -22 15.5 -37.5t37.5 -15.5t37.5 15.5z" />
    <glyph glyph-name="circumflex" unicode="&#x2c6;" horiz-adv-x="182" 
d="M105 835l67 -98h-20l-61 77l-61 -77h-20l68 98h27z" />
    <glyph glyph-name="dieresis" unicode="&#xa8;" horiz-adv-x="206" 
d="M54.5 781.5q-7.5 7.5 -18.5 7.5t-18.5 -7.5t-7.5 -18.5q0 -10 8 -18t18 -8q11 0 18.5 7.5t7.5 18.5t-7.5 18.5zM188.5 781.5q-7.5 7.5 -18.5 7.5t-18.5 -7.5t-7.5 -18.5q0 -10 8 -18t18 -8q11 0 18.5 7.5t7.5 18.5t-7.5 18.5z" />
    <glyph glyph-name="dotaccent" unicode="&#x2d9;" horiz-adv-x="72" 
d="M54.5 781.5q-7.5 7.5 -18.5 7.5t-18.5 -7.5t-7.5 -18.5q0 -10 8 -18t18 -8q11 0 18.5 7.5t7.5 18.5t-7.5 18.5z" />
    <glyph glyph-name="grave" unicode="`" horiz-adv-x="114" 
d="M41 835l63 -98h-20l-74 98h31z" />
    <glyph glyph-name="hungarumlaut" unicode="&#x2dd;" horiz-adv-x="205" 
d="M121 737h-20l63 98h31zM30 737h-20l63 98h31z" />
    <glyph glyph-name="macron" unicode="&#xaf;" horiz-adv-x="354" 
d="M344 759h-334v-22h334v22z" />
    <glyph glyph-name="ring" unicode="&#x2da;" horiz-adv-x="126" 
d="M100.5 752.5q15.5 15.5 15.5 37.5t-15.5 37.5t-37.5 15.5t-37.5 -15.5t-15.5 -37.5t15.5 -37.5t37.5 -15.5t37.5 15.5zM85 812q9 -9 9 -22t-9 -22t-22 -9t-22 9t-9 22t9 22t22 9t22 -9z" />
    <glyph glyph-name="tilde" unicode="&#x2dc;" horiz-adv-x="261" 
d="M82 772q19 0 45 -16q30 -18 53 -18q8 0 11 1q31 4 60 41l-17 13q-27 -33 -54 -33q-18 0 -41 14q-35 20 -57 20l-10 -1q-31 -4 -62 -41l17 -14q28 34 55 34z" />
    <glyph glyph-name="newGlyph" horiz-adv-x="600" 
 />
    </font>
</defs>
</svg>
